<mxfile host="app.diagrams.net" modified="2023-09-18T16:03:01.263Z" agent="Mozilla/5.0 (Windows NT 10.0; Win64; x64) AppleWebKit/537.36 (KHTML, like Gecko) Chrome/111.0.0.0 Safari/537.36" etag="rG17TIsFlHJJRfWwfuIf" version="21.7.5" type="device">
  <diagram name="PÃ¡gina-1" id="BUa1r7VmZl86RjBF4qDB">
    <mxGraphModel dx="2261" dy="806" grid="1" gridSize="10" guides="1" tooltips="1" connect="1" arrows="1" fold="1" page="1" pageScale="1" pageWidth="827" pageHeight="1169" math="0" shadow="0">
      <root>
        <mxCell id="0" />
        <mxCell id="1" parent="0" />
        <mxCell id="FxnMpLFhFHQ9vmVd9Fjh-1" value="" style="shape=image;verticalLabelPosition=bottom;labelBackgroundColor=default;verticalAlign=top;aspect=fixed;imageAspect=0;image=data:image/png,iVBORw0KGgoAAAANSUhEUgAAAewAAAEjCAYAAADwlDIBAAAAAXNSR0IArs4c6QAAAARnQU1BAACxjwv8YQUAAAAJcEhZcwAADsMAAA7DAcdvqGQAAI9BSURBVHhe7f19VFRXuu+Lf4mUWiAFVqmAFFq8FCUvhQIRRElboU1sEmPvJt29TcfufUZ3X2+f8zvu33DssdN7n/MH+M8etzPGHt5zs8c4+7qTu3f6p8bYHXIidiqJxMCNoKJWCQUiBAWkeNFYhYJQIGB+c661CqqKquKlClPo88lgmFpzzbnmetYz5/M8c708YWlpad+BIAiCIIiQJmzr1q1ksAmCIAgixHkuOjpa+l+CWDhcj0iXAoNkGDgkw8AhGYYuYS+99NJ3XV1d0k+CWBgbN24U/iVdWjgkw8AhGQYOyTB0ee6772hFnAgcrkekS4FBMgwckmHgkAxDl+ekfwmCIAiCCGEowiaCAnnlgUMyDBySYeCQDEMXirAJgiAIYglAETYRFMgrDxySYeCQDAOHZBi6UIRNEARBEEsAirCJoEBeeeCQDAOHZBg4JMPQhSJsgiAIglgCkMEmCIIgiCUALYkTQYGW0QKHZBg4JMPAIRmGLhRhEwRBEMQSgCJsIiiQVx44JMPAIRkGDskwdKEImyAIgiCWABRhE0GBvPLAIRkGDskwcEiGoQtF2ARBEASxBCCDTRAEQRBLAFoSJ4ICLaMFDskwcEiGgUMyDF0owiYIgiCIJQBF2ERQIK88cEiGgUMyDBySYegSVlRU9N3du3eln07WIC0/H/lpQFt9Perb7rlsz0Zi5D22vRHdw9LmgFiMNl1Z7PYJzrp164R/fepSfjJipC2j/c2ov1SPxsW+GJGJyM7fjA24jQbXa78mDfnZiYi814b6xm6Eikr4lqGTSCRm56MgPxNxK9nP0X40118K3jn4ktcSYt562NQHxKcu6XMONnOX4Sj6m+txKSC50fw8H3xE2FyIP8RP/7f/DT8tzkfaGmmztH3Xi9nYECFtCpjFaNOV+bbP9y/GD9n+iZHSJmJWfHvlTvkzQyDIcy37/Qr2//IV5hBOKdYThPUnOxc5mzcw8xda+I1suDF98XX87FU2HtdOb0vcuAGJ34cYQ5S56yHhi7nKMHLDZry4Zw9e5M6vtMf8cba5WPP/04Wfe9jMe7KHYV2iDoUBXZClBilQ8BlFX3MNPvl//gX/8i/v4F3jTSClED/MT2PSXkSGu9H41Rmc+crFc4+MRKTDiqYvq/BVCEXX/uGR9YvYVZyFlb1f4c//xuXI/t79MzuH28E7B2/yeqpw1cN/wbt//gqNN2485eccbFxk+M7HaBzm8+VmCm6eEMs2bNhQPjIyIv10Il6EtY87cffbCUTFxWLE2g7rYLSwfYNz+SKMef1FL+O1PcXYni9G4qMDPbCN8PrbsGVzJjK12fjB7mJksLJlUSqk73gNe4q3I5u5aBND3+KOs801EVgpi8WW4mLkupVtQ+GLO5CfnQb1ygkM3I9A6tQx+YQ/ioEeG9zOgEcj0j65GzYgOSMOKyb6vPTZsz7v94soKX0BWQnrsHb5JB4MDWBMlQVDyU+w+wf8NoFwkuixRcy5bxFp+V7qe8p8aRPJDCHHly5N6Qwrt337ECsS0pG6ZhK2G72QZzFdSYvCxLd3MDgu6Y7wexJxOe4yXhaZgnyvsuRGrQgvv7YHxdudujgGlWvby3mUaoBhawaS1ycjQdjHRV8L85CXkYvi4h+46Oe4eBpPAJ8yZOf8g9dehA7N+OKkEdecd6jGBzH4gP0Jpx+sseghrxn6HAa1D1k9jE5H0ctim/l86dR5fUZVPvomnkYwmbseSpuF7c5zFvXt+9aD75u5yvBm3wrEZ2Zg49qHsJrFcTynuXpB87O38c10yOv+o1DNuu/MMTL7PBPmvQ+LoMe+WJaYmOjTYG9YcRNXa6xYlroZyapBWNtHmUI7Lxi7QDl/hb96JQsJyx/gQdgGpGUmY/1yG6xdK5C5Zx/e+GkeYidH4YhOhX5LNp5Pjka4bDm+U2mR93wq1jp6cOP6BJsAClDwvBpyB9tXpkbGlk1YL7Ohs/05oZ2f7knHqod96Lw1isikrfjBi5sQy+KK4ZgN2BC1DBN3OtExNaBY34um+zW6Ig5JGRrI7W1oFPr8I/zIZ/0IqBLSkF3AymXMsNy8geudPRjAaiQkJGD1yrVIy96EdZGD6LwxOee+3ZGt81K/gxknscdPAxER4nLEnCbK8TCs1eZDlzCJe+39UL3wVzBkLcMdMy/fgMKfOH/fh3q3q4ytGBhdidUzZHkX0ekvYs+eIqSqWKA4PC4MpJ6eZUjb7WxL0teXdFiHe7jnTV//ajNiRofwQJHqop/97s7gIuJThjE65G/biIhvr6P2fAceSJuncdf5hY/F5dg8JXtfY+Ux4n74uldZ3ez5DqvVCVi3Kh5pBTnYpBpFOxtzYekv++gbd9CkUwgS/vWQzTP5OiSu2whdjnPCddURUd++bz34vpnrWLarslH0g0xE2Vpw6dIotHOaDx9Cpn9lnvPzXUxoiryMb+aQ53rZ/3EEtNteQH6qAg8ejLjs63+MzDrP3ItEAQso3dsNJYPNLsw1Yw2alzHPRBfHhDqMiQ2p4gVrfoTU3dzrv4aKd97FR3U3MKnOQ1biKgy234ZMl4eMuHu4eOoYjhu7odAXYouyHzXH38Wx6nuI3pSJ1KhhdF27i6gcl30r6zEUq8em+BVT7SSvaMPZ94/hL+0xKPjJa3gpJxrDPXfwQJaA9PUrMGJvh6lDmsYiN+HFkm3YMHEVp/7nf+DsN2GI3ZSBuIkONAp99lefGWl2YSMT1kM+cgWV73+Ei8zCjIRFYrVShYTVKqhSNVg92Y8uwaOcW9/Od054qe/q5YcWPDr6yU9+IkZJHn8crqSezMtgM295QzZfRnuAWyZ+jV3LXff3kHFDPzO0Xq5F2zA0P3oFzyus+OLf3sWHVbVo/MbpOUttzUVfo7vx1Yn/wH+c7XPRz+voW4BR4bIKmgwjNyA7LxkxfMna5MVgc53/SbDGoqu8vOnzfTxcm+JVVu01X+FCgwm3WGQVtWoUNy99iq8sbJLz2TcTnMPWG1xWwdVDJoekFeL5sGs6NZFnuetbMPXg+4bLKrgynHZ69IY8qCd6Yfr0HK5alyOJyXfW+XAsnMk0fX7z89h3WJWzY+b4DuN672X/51Zg5ToN1KMmfHzqTzh7tVPa1/8YmXWesU4iUb/ZvV1PES0Afi3meo3m8FoXV+RLaLOpmNfMvNKpB17kWBk5Bse392HnS3RsMuntuQv72ErI5XyHUfTdbMPN9m4M37Pj/re96LDZMGAbZk3y3w6MRbJ9Bd1w2XeYlbF9Rp+bbmfAWS+CHzMM34044OD3m75tQ4PJ7P60Md9n2QPYuvtgZf0a7u5Fz+1e3OdlQp9nqe+J8LDPD/HDgjSsZQZ9dJT/SWVz6Ztd5ad+6FJQUICDBw+6/fFtvvD9oIoXIlVYrXoO3z28jwHn8q5PXGTs61qw9mJUy+C424NeX9dyLvra040+rjQz9HNhBE2GIzbcH16OyLXx4Mv4MxB0L1hjUcLnWOEzlB9Z8Sfwt6ch5n4b6urbcG/WvvknuHrI+u1yD/vYp/WYegFmiuDrwfdNcGU4zfDtRnx15ozLsyBzmA9tj+c/P9tWeh/fvo5hvob6ujo0OdbjxZ/+FvtfYXZr42x6OId5hr9V4tmut/G4AOZ6jeb24RTW0UsN3RhNyMQPnI/0DzswOrwC8rUxUPJOs5Ncn6CAfEISyLxYySZwPolHSu1EYaW3dtiFGWXHvd/XjJpP/l188ObYpy6vnTH4PpPRUCXGQ836FZm4Hgkb1rv0eZb6ngivAG1ARHcN/p9//wT/b1M/u7Re8NU3++q51Q8h6uvr8c477wj/OvG2bWFwL92AbPVjfPtNI24zmTlGHwNhK7FSmPCViFnL/sSd3fF1LYaZQbNNQr4uAet9Pf0iXPtg6evsBFWGbHJpsHTj4Zp8/Ig/Je6cJNg5JG5kfxGLcG4+x8q30g7e4Nd2O9Ji7qOtTjKGwrhYWN+CKsNnlODL0NXpOYZPuVMmlbjhaz68xuzIfOfna63ex7evY5hNaPzqzzj2569wE6ko3FGIbGXY3PXQ5zzDH8r0aHeDj/lmHsznGi1Tq9XlDodD+unEZSlRWKYcx+CAHYjVIidfD3mXCfXnr6JjPBaajE3YkquDLucHyFQ9RNfFr3DhOn8wxbW+Z3uuv8VlqOwtG7FGkQDd1p3IjhtC58Wz+LrBo53745hYHovULdnIydEhRZcz8yGucbaPKhX657egUJ+CpORMZGTEIYzfI5H67Lc+Y02aHtnZOUhTTOKB4zusUG1ARroOiZokpGcnYcXALVw38X7PoW+TvupzOUgHDEH4Mgz/Y/oh/DvbAJdL4ZJ3XXK9d1iInCQ5Bpq+xLlaLoMJTMRosClTj+czU5CSthnZm9VY5ryn5SrjRzFITts0U5YXLzHjoEBihh5bdmRBx2QvXlaX5c6A9FU6lXkSPBmy8Tc0hDHZBmTn5CKX9z8rH/nP67F++UN8e+sW+ieCNRal//c5VsIRmSLdFvOob7+vRP5flaIgORrylfHIYpNepGMAfQMrkeC1bx4Pi3oheDL0dU19nL9XWUlVlhiLL0OOR5mv+XDoLrqwfn7z81Av2q3hM8f33U7cYXo/Y/9Va5Gg34k9hTokqCMxebcbLRca8Y1DObcx4mue6R5F/NYS93avXHd5fmrhzPUa+TDYHH4/twO3OqUHQ8YHMWC34U5vDzqvN+J6Zwc6+H2DkTCsjFyF8HEbbtZ/ja/rr6Nf6L9Hfb+/B3Hnjg0PHnyHlcuG0WX+GuenFMJ1P/b/396B7cE4wlesQDgv5saWn+yUwWX7MOdimP1cuWIlHL03caPFBNP1NtaG2OfZ6jtGH2FsPBzPjbOyb27gRvd9jIevwIrxO+hqvw6T6TpuWaX+zNY3v/WFA4YsTiXiiuNvgHN8D3IOlyf/4/8/iK5r1fiq2nn/UjJGj8TrBXsPbrLIu76RycgpV6eMHwxhaOSRF1la0W29C9swk/2qVRC+KTL1QIizfqD6ujCCJsMRG3q62ATl7D/f5mAT2fXraOnoRz/TveCMRef/+xsr97zWvzPEr/FjPLRJhniCORM9bCJu+gb3fPZtdoImwxnn7cTb+XuTjbDzkmTxZcjxkKPXufobNLZb5zk/d6LleqeX8f0N2rq87D/A4uGVq5GweiXGH3TBwhx6U8stdM91jPiaZ+wTiGJRvnu7wXsYcS7XKGzbtm3f2e0seiaIAFAqlcK/pEsLh2QYOCTDwCEZhi70LXEiKMz1QRXCNyTDwCEZBg7JMHShbF0EQRAEsQSgCJsICuSVBw7JMHBIhoFDMgxdKMImCIIgiCUARdhEUCCvPHBIhoFDMgwckmHoIuTDHhsbk34SxMJYsWKF8C/p0sIhGQYOyTBwSIahS9j//J//8zvnt2MJYqE4vztMurRwSIaBQzIMHJJh6BJ2586d79atWyf9JIiFcffuXeFf0qWFQzIMHJJh4JAMQxd66IwgCIIglgBksAmCIAhiCUAGmyCIBWFvq0ZFZQWq2+b+CcuF1HlaIfkR8+WJGOzFVTIHrGYjjh05jMNHjsFotrItxJLF3obqqnMu19GOtuoKVFZU41mbo0J7craj1XldbNKmWVlInacVkh8xf5b9/d//fXlkZOA5Pf1hrXsf/3qmFkOqfBh0KmnrwuCTmPHseXSOK6GOV0Bmv47T//4BKi5ZIdNoodVooBgyocp1H6luMJhxfGn7s87wsJhYXtQl7kRV4fTJE/j4ixrU1LA/bnSiYqFRiZmAfGKtw/sV59E4FoeiXDUcbUac/sSIWxNaZGVrMVv1pYy7DIM7brzhsJpRdfokzjTex0qlGvEKSZu502T8CO+fOiNcO7PV4V7OsV+D8fNG2BUF+PGeAsQ5XOuYYXWshFIdD9cqnnWibeLxT3z8hXAcUUU0wjV29k0sa2OmKgqxGhVmu/yeMvRHIGPZvX/++u5eNkWIyo8zHxkST5alvyRuu42btuVQGX6L3x/aj5Ic9ZyUklhMmME2GXGuqhqtAUcCSqQZSvFaqQFpYhIhImDEVYuTx1m0xiL4ykojTMwoT5dV4ZyRGQ3+ds+IFebPKlHJf7ssXdlbLeielCMhvwBpYMam4iSOO+vY2lBTUYmKam4opnGrI2ft1l1EndkqpCccsZpgPPahVIf1wdyIBqnM1lqNijMhtNLg8NN3f2VCZZFnWn7EgglChM2jqcu43tGKtqZrOHviFM54eIj2NjHCUqUZxEiBK3XVaZw88TG+cPMMxcjsSrMFTddaUHNqZlsOWyc6ByegiNdC7biBqkqm6F81oOdOH+4MTUDGorhY3JnaRyu6m96PB1/94KflvSxiZPr4Qtszokk+YJze7Ozn40Tw9utMuBPmjELFujVX2jES6RHdhCAzI+xq9Mky8KPfleEAM7aGvHTv0bWbnJlsrF2w3J2ELDYNhnSgy9wF++R6pGQkQjHh+3q5RxTeZRzqeEY27uMmQtKlHozHSDrKI+HaBrQ8kLEIUYY7c9Q1fn1snZ24hxi2/SEePWL1cwzIVXNBfoOzx+vQJy/Ab8r/K/7aoMGYqQHtPcuwoSgXfBd2YFwzfo4b30Yhb/duJNur8e6pOthTfoL//o8HUFqkQn/tFVxndbRFWYgVju1eJ1PhwL2RSGjyduONfXvZtV6F23VX0TaoQGZRCuSPWFl2MV5nZXmrb6P26nXYV2aiKCvWbyTsKsPZxlTMeM88xrILE4O++16wAct4372el3dZhJL8OBRhhy5BiLCZkrNo6viRIzgmeYgjbPL87PjJGR6iiOj9XTP3sJqSZ1hZCaOJ37MU2zrG2nJ6m57eoa21Rvhd4yd0c9/HGU18BrPovorHN3EP1Fc/fNWxwurWNh/g7NxPst/STSV+7sapc5/9fKZgXnW14FW3ijLjhsw4M7JZSvQ2VuODdw7j8GFJN2achyi/ykqnnJncLU1otfRKxVaYBBmYWF0/eiPI6hy+ZBNswAF9yCLq0rkva6ZXLWytqPny3JzHzjTiqsW+/SXISXAzRQwl1qwPx/3uK6i/1IDGGxb0TDCDrk+XjDXD3gpL9yTGV+uxaWpjJOTySETwn8o1iFc9gszeh3vOQ3vWkauRs30btksrYvIIsb4I619ONjYLZXbc67Vj/IEc0ZHOY82RWcaU51zCDTx/ZsBtLHMdY5Gqm+r667vf85JYKvIjQo4gLYk/wPBIONQFpThQXobysl9hq5wbPT7RSru4wpQtt+RNHCpj+771W7bvY3RbXI27OKEIbR18FWrZACwtHoOGIVfnoKTkFRiKfoD8vb/B7w+UwuC5bsoUvZoN0A75VvyqrBxl7I9HfMItQV/98FfHFWECuIAbgykoOcT34+f+OrLQzbxh13Of/XyUOj2yooChJgtamSAc1huwDMgQpctHztSgXirIoc4tQfEuUWY+HTguP7bNNiXnQ9hf4ozivODrerF2WizNeCDPwRsHy6R2cny381Qzt7HjE0HGxchd34vqo+UoP2LEzWgdCqfkyR2DerQOjmO1fpOwTa7ORYFOAcfld/GHw9xB+yM+NVnwrWyQzQve67jDylsssLo6Bnz1oOIoa6scf/i0A3Ldjnnf7vI6pqwTCFe7GkoJpkMmYxXMd+Kw83euY/k2G8v+nGYvfZ/CW9nSkR8RegTtHvb67FxszRcHtVy9EclqmbuHOIUSiWsn0dv8J7zNlPPtd0/jkqkPI4PDwv0WjmtbyjXxUMlj4GCaO+dJxxXbPfRNxCA6Q490QZOd3mc20nz1w2cdD4W3d6O9YwLyuEzoJUdBrk6HPiMaMZPT5z6n81HqUJCvRsTjblhae2Blkc2ATAFdvh8DFrIwg51Tgv2HuPHkEx934DqYc1MtTJxTSPIbVyRjo1PO+kzosteL5W740RtuZAw6KB2X8cfywzhyzCg8KPUsEvjYESMy2RodsrK3QLs2FuEP+tBsuSEaLe5k1bdiaHw19Juk8aBMg6F0D0rZNfD6aJy3Oi4Ike3Zy3AkbUGJIY1daVdUSExNgoIFBR3t3e4O32ywMaUXLbbLmIpiY8rpfLjA+th1k/1dbUTNiXeYoWM69h7XsXbY+u/C5kOA/vrutWwpyY8IOZ78Q2eC51eJiu97+TJU+jEFM1YF+UiQT6K7/hzqLAOQLUuEXuc+/JYictU6xCojIXMMw7FQO+rvejGDncMi732lO5GmsqGtRnr1hWaneeOQbjXUD6eg5ABztg69Dj0sqKoUnSBfKz/KNANK2f7cQSs7+ApyNqZCFh6PNcwC+VstEozNyQp2BD12vVYyXS4YsQOiw/fLfETfqpVujYjFc0MJHRtT6ojH02NKoUN+7kyjJyIuK8unPqGtgs6wC8U+Vn189p3hq2xpyY8INYJmsHsbTbhcLy4dOaxduDUoQ3hSKhI97Y2tFfX1PXCoX8FBpkwHf7ET2fFS2WKgWoP48Pt4cN2CFkFbxXuhDVXnUO2rH77qeN7LUiYiNSkcjv5mWCTr4LC2wGIdx5jSy7nPgly9CfrV47D+5d/w7mUHliXqsRTttb3NjMaG6WVEe1sjmu+MzNQHfq9OOY5x6y10iYrDIonLMDVK97BdmU1vBKO9H4fKfo+fZQADN+qD8IR6KCFHRKQc9x029PGlG3+yCgT7PfTaZXikXI817FrJVWsRp1qBcMcDDDNva/aVHzZWqvmrYBFQ5xcw/fVVh23n30947zguDaeiZN+b00u2/NwaGmEOgselTCtAfoIcg+dP4VSbzPeYkquwLk6F1NwC7P3NW6LhFP683V7x0/fZypaY/IjQIlz6NwhwRavA0cbTGLP3w65IhUFSdKu0h4CKL1PV4JvGD/DOYROiJ63CxLpRKg46Sp3Qj5vH6/HHw72oVS/HpCwVBfo0ZGe1o8dbP3zVMfwQiUKjEoKR2ILLR434c3k5LDoVRgYH4YjeNHXu87IZrL1N+tUY/6gBN5/bgl/qdR7LW0sEZlyrP6uBZTSORTfsZz9zdGJzUeI58QlL2WkwO+WsXIEJNtlMREQiWtplCn96w6Pv6mrUWPrYjxFY+4F4PZuYva4vLlX4cwEFUF+pQPU75ehLjMEEO287IhYwdvhYrUZ1zSVcNtXDxAbone/+gMF2AwzZ6SjQXUGFcD/1a6hGrLjZA2Y8DMhV2XDjDF/50bqv/HADwdurv4lBpvH9zPlSFJSglC/PsrJaYbXIo46wYnIU73zQBFUOG3Kn34PlNNser8fOggQMmXh7PTjNjOiI9SZ6oEa+wZeR84M0poxVDbgVtgU/9jWmhLFcCGtlNYxHylGrkMJsRQo7LpOL6+0wf33Xx8D6qZ/z8iaLUJYfEVIE6bUu/gpPPFL0hVg7ehdjCi12vLwbLxXyeydAWBgbDyoN0nUZ0KjViF23nCn/Qww9BGK0OcjPM6AwOxmJ/PWJMBkUcalITpFeXRErQ5OSBC3/uIFrW3wHz3LP46mUUKkTsEYRjjF2wDHEQPt8AbYVb0dGgq9+qKH2VqdQBxU7wHTbCiji1UhYxfrxcIi1BMjWZsCwm527c4DPdj58nylkiBjrgekaMzxJxfj5T4uQKDQS+ri+CiKPXA7H6BgGBrhEgIj1Odi1Z++0TKaQu18bWQI288nRkIeMDWokcvmwyCJeq4MuOwtaX9crlhmczk503RWuABTaHXix2IC8JTY7eb5O467Hcvb/sVi3nJ0T1zUuqx3bUWh4HulTY2Ouuia+1tXZNYDn4rXQ6bTCa4MrlAnQpOdhSyq7hpKcweSvyS/BnhIDUhz1+KS2F5NJL2BPUeL0tZwYRD9vr2eAjZUIrM/ZhT17XxKWZx2ddd7rOAZhH5MhOiHZvW/84zraDGQyZ2tsaAADY7wLGuSX7EGJwfmKk29mvpLExlTkKqxYHY+MnO0wPJ8uyobhLl8+ljWCHMbsd4XjCqxQIkGjgca1j/76HrsailUKr2Wx6EXDjYGQlh+HXusKXYKQXtOOi++V40y7CgW/LsNrWmkzsSDsF46i/OgFoPAAyg8ULpkIm1LyBU5oy9CBbyqP4OgFB7SvHcKBwrlo5kLqBEboynBpyI9DYzl0efIPnRF+sKPV0oQhRCFrqS6HE08twmuUxT+EwetNYO8spM7TCsmPCJQgRNjiknibjd9jo89HBoZ4b7HVroTOsLRkSV554JAMA4dkGDgkw9AlCAabIGiQBwOSYeCQDAOHZBi60JI4QRAEQSwByGATBEEQxBJgiRls6V3vI8eED/LbrWbUXax7Zj9DSRAEQTw7LI7B5i/1V52bmeUmUOytMDU2CEaa/1WdM+LCRY/vUxMEQRDEU8jiGGy3tH/cfvPv3YpRcSAGnH/y9N7KWDz/81eE7xsb/3QZ/aNrpMQRBEEQBPH0srSWxJU65GZvwY6C7di+bTt+WFyCwm2GJfm9bYIgCIKYD8F5rcvtW7gKpKweQs3NR5Bn70H5b7YBLMKubrUze2sQ8lU7rGbh28/1NwdZZbZ/Pv8cJf/OtPhOd3V1PYQixEO/k5fxlHHO970dGGZlfRYL+tzqCh3xU59YTOhVkMAhGQYOyTBwSIahSxAibG4kjais/AxmK89obUebpQmtluksQrbWGlScqUANz9bAjbvxHL70kiZRWDqvZPu1iSUjzLDzVH/iUjo7jsmIY0eO4DhPKM8OZWtl+7N2q4WsNGI/jp/0qH/8JCqqeZIEgiAIgli6BG6wheiaGV/5VvyqrFxKR+cnKwzbv8XSjAfyHLxx0CV9HawwGatgvhOHnb/j7ZShvOx1ZOE2rnEDPXXzW4k0QykOlLPyg69CLRuApYUZdMERuIAbgykoOeRav5vVpzywBEEQxNImcINt70Z7xwTGFcnSw1/MoOozocteL5Z7IqRU1EHpuIw/lh/GkWNiYnxuyLtusr+rjag58Q4OHz6Mt987jUumdtj678ImGdz12bnYmi8ugSvXxEMlj4FjeAQOqR/yuEzopW96ytXp0GdEI2ayDzyFMEEQBEEsVZ78Q2dC3tk3sa90J9JUNrTVVKCyohpirvVIyOXsT0pFC6igM+xCsb+InSAIgiCeAQI32Mo1iFeOY9x6C11SpGyuvwxT4/Q97BkIRns/DpX9Hj/LAAZu1KN1RIV1cSqk5hZg72/eEpa0xT9pyXw2g61MRGpSOBz9zbCI1p91pQUW6zjGlKlIpKfOCIIgiCXMsr//+78vDyhRuUyG5RM9uGG6jNpaExovNaC504qesUgkpWajMFcNR1sNapgRVaUZYFhrQ7XxI7x/6gxqas6jrssBlX4HirfnYcPaUdi7zKivrsXFi3WsnNXjD5ytVEIdL8Md/pS4PQLqHAN0KnZsexsr74FDmQZDfhrWrBpA+9U6nP/8Epqa6nG2phl3o9Pwwqs7kZfokuSdCDqU9D5wSIaBQzIMHJJh6BK4wYYcKnUC1ijCMTb0EGOyBGw28Fep8pCxQY3EeGYow9heKg3SdRnQRIygs7MTXXcfsroyKLQ78GKxAXlqBRTxGsQrZBiz38XAmNg6ViiRoNFAI7TD9o9LRXKKBioecYcJDUOTkgRtvAqqeDUSVrGCh0MQWl+bAcPu3XgpR816SSwmNMgDh2QYOCTDwCEZhi6UXpMICvTuZuCQDAOHZBg4JMPQ5ck/dEYQBEEQxLwhg00QBEEQSwAy2ARBEASxBCCDTRAEQRBLgLCOjo7vIiKmvlRCEAtiZIR/Rx4gXVo4JMPAIRkGDskwdKEImyAIgiCWAPRaFxEU6FWQwCEZBg7JMHBIhqELRdgEQRAEsQQgg00QBEEQSwAy2ARBLAh7WzUqKitQLSXbmQsLqfO0EmxZkGyffhbHYNvbUF11DkaeuEPaFKp4KnlQlX6ecqABNwsz5GlHW7Vretani9DWBztanbK3SZtmZSF1nlaCLQuS7bNAEJJ/eMFah/crzqNxLA5FuaGdeMNa9z7+9UwthlT5MOhUM34HxDzlENRjP2G8JQxwWM2oOn0SZxrvY6VSLSR2YVthNVfh9MkT+PiLGjEjGzdIUbHQCBld/OAhT0ebEac/MeLWhBZZ2VoxIcwSxlOGi6kPzmtz4uMvhGsgXgKeVGeO18d+DcbPG2FXFODHewoQ52DO1FQWPjOsjpVQquMhXHInHnWibb764Nm/NmaOohCrUc06huaTuII7RMaz59E5zrMBzj+bn3f9nmPfPeXncs6e7bECmKtO4+SJj/GFh5ymCKJs5z6WiScNLYkTi4AY+Z48zjx+FiFWVhph4rnSBZhBMBlxrqoarQFHAkqkGUrxWqkBaZTvfO5wA1B3EXVmK/gbtyNWE4zHPkRFNZ+853Z97K0WdE/KkZBfgDQwY11xEseNzFDzBm1tqKmolNqbxq2O3F8fmP6YG9Egldlaq1FxJpRWGvzp99z67iYL5SztCWWfwcyFa2tlsv4Qx7isXZbtFk+2/vpGPGmCE2G7eYBMkaxdsNydhCw2DQYhsvT02t29OnePz8U7n/DlWXIlqkXD+XrUNtbh44+vsvYe4X5nK75x28aPEQGbn2PbXXN1syjG87dgYPzUdyNAOcw89tLB3St3wNbZiXuIYRHWQzx6JBNymOeqhavNZFCNPlkGfvS7MhxgxtaQl+49uvYnz3Sgy9wF++R6pGQk+tEV3owP/QqxIMEzsnHXhwhBd64092A8Roqu+C2C2ga0PGDyFfLF83ILmq61oObUKZzxda4Tg7g3EglN3m68sW8vk+Uq3K67irZBBTKLUjBume362HHN+DlufBuFvN27kWyvxrun6mBP+Qn++z8eQGmRCv21V3C9Zxm0RVmIFY7tXidT4fDbB/kjVpZdjNdZWd7q26i9eh32lZkoyor1Gwm7ylCIoOtMuBPmXB0Qx1/NlXaMRKoRM96DzsEJKOK10LqUzz7W/ev3ID8vv333kIVqwnd7LHL+6N2/wIQ8/Lrs7/Drl9LhuPE1GrpHkbClEEkKL+0FKNu5j2XiSROECJsruZF5XpIHyJSnzdKEVkuvWMxw3ourkW6ujLAJ1FhZKd6L5JOy8Ry+ZIPD3aEXPcFr5h52BMlL5HVM/P6lDa01FTh6+Cgqpuqx/WdsE/t2/KTHsY+fnOH9e2c+9QOUg7DlaUGMfPftL0FOgveB3dtYjQ/eOYzDh4/MiBZEZpEn0xuTsRKVRhOr60dXfOrXUoPJg0e+X9ZMR74s2qr58pw0JsTyY0eOTEW6PqMnuRo527dhu5QnXh4RCbnc3Wn3e33srbB0T2J8tR6bpiZusY0I/lO5BvGqR5DZ+3DPeWjPOn77wPQnJxubhTI77vXaMf5AjuhI57HmCIv0q4VIv1Ucq4IucJ0Rz8fWWiPIp0YS6NzHpz/9nkPfZ8jPd3sO5qTeHJIhOkOPdL6vMhGpGgWix/tx1yb1alFl6+9ciSdN4AabDwJmvGzyrfhVWTnKyg5hf0kupsaxMLFWwXwnDjt/x8vLUF72OrJwm3mFbODYrWixNOOBPAdvHCyT6ueI9Zni5Za8iUO8zlu/xVb5Y3RbnIZyEMPyOOSXHGDtMa/ekMZUy2NbQQS6jBdwYzAFJYdcj93Njs0neqEh3wgDfI71A5XDbH15apBDnVuC4l0G8EUEPil+5s0Bmk2envjSFdaOT/16KhEn2APlTA4HX4VaNgBLiz+HkBn6FgusEyxy0qczucx2fbhjUI/WwXGs1m8S5ChX56JAp4Dj8rv4w2Fu5P+IT00WfCtj45H7Wl7quOPZB7aJrx5UHGVtleMPn3ZArtuBEskAzRWlTo+sKGCoyYJW1nmH9QYs1gmEq10dDYlgjk+/fZ9NFu44RobhYGGvXBEh1ZcjghnXx885mGx5p74f2RLfD4EbbHs32jsmMK5IxkZBG9iEoc+ELnu9WM4GQtdN9ne1ETUn3mFKchhvv3cal0ztsPXfZVEPm2gNOigdl/HH8sM4cszIIiquiEokrp1Eb/Of8Dav8y6v04eRwWHh3gtnfbYOmXpuqKdx2yb1TR6XCb10k1OuToc+Ixoxky7evy/mUz9QOTxLBjunBPsPcePJJ8VfMePawRyjamFSnWI2ebrhR1e4IfeqX08n67NzsTVfdEiUa+KhksfAwaymrzMWosqzl+FI2oISwemd5fpwR6q+FUPjq6HfJE3yyjQYSvcwp1kHrzdyvNVxYWYfXFEhMTUJCjxAR3u3u1M3G0od9KLFhqW1B9YbFgzIoqCT5OPGooxPL32fRRbz5vuSLfG98IQeOhOXZORT35JXQWfYhWIeMSnVyGGR0b7SnUhT2YRlbeHVhG+k5awlv5Tpih85BDxylyZy1TrEKiMhc7BIYqF2VIgYfOgKXx70pl80O4mT+ckKWKDHrtdKkONFCT2vjxClDsgQpct321+ZZkDpAdHIlx18BTkbUyELj8caZsF91eH47IPgBBwQnYZf5iP6Vq10+0MsnhtK6AryoY54jO76c6izDECm0CHf5xsbQRqffvruTxbeEJazx1m9QafT5cDIsAPPPZYjMkL+PcqW+D4I3GDz+1XKcYxbb6FL1Ejm8V2GqVG61yhXYV2cCqm5Bdj7m7fEAS38uS9955Tsx6Gy3+NnGcDAjXq0treivr4HDvUrOMj2P/iLnciOF5ucM/x+T1I4HP3NsEgztMPaAot1HGPKVCS6u5szmU/9YMjhGcDeZkZjw/QSo72tEc13RhCeNE95umKbRVe86deS8wLFpdD7Dhv6+NKOP3nMikN4PuDYe8dxaTgVJfvenFoS9X99WD0hSlWwKNWXEbOjrboGZmsE1PkF0Pms47sPwrk1NMIcBK9KmVaA/AQ5Bs+fwqk2GZYl6lmfpEJXgjU+/fZ9LvJzR67eiJSocUx0tOM2b5KvPHVOYlyRgo1qfK+yJZ484dK/C0dYckyD+Xg9/ni4F7XKFZhgSjHBPMNoqTynpBDWymoYj5SjViG5r0zh8g0GGDaO4FJ1NWosfWzjCKz9QLyeDapUHcazavBN4wd457AJ0ZNWYZLdKNaeG8Kxt+DyUSP+XF4Oi06FkcFBOKI3wSANQqu0q1fmUH+KQOXABtTTA5+0q1FdcwmXTfUwMSHf+e4PGGw3QL+yH9ct9bCMxrHIh9nafiscsbkoma88XVHxpU8fusKjb2/6tbQewmfwe8sFUF+pQPU75ehLjMEEOzc7IuY3JjjSPcx3PmiCKocZtdPvwXKabY/XQ7+iH9ZbFu/Xh42WKh6lLtNC72r1uBHg17v+JgZhQz+z9oqCEvG5ElZW662Onz7sLEjAkIm314PTzIiOWG+ihx093zDPSJfD9GiTfjWMVQ24FbYFP9brPJaFJeYwPqcP7Vu/Dazv/OE/r31n8vMqC3/tGbKFuaa/gt/S6cMXYNfHEQ99qQE6+ZOQrb++Gea0SkAEjyC81iWHSp2ANYpwjA09xJgsAZu5ghvykLFBjcR4FVTxGuFF+zH7XQyMSdVWKJGg0UATM46ezk503X3INsqg0O7Ai8UG5KWpEbtuOWv9IViziNHmID/PgMLsZCRq1rBpih1Xkw5dhvMDAmHsP89trL14NRJWsR8Ph1hLbMvaDBh278ZL0gAMC2NnoNIgXZchvPrh/lsxa/1pApQD/3CDR1+WEt5eBensGsBz8VrodFrhvFcoE5CRkYaY5ZMYGODSBCLW52DXnr0LkCeTF4ss4rU66LKzoE3woSuxbILxpl8hONF4vtblqZtyVSzWLZd0kctjx3YUGp5HekoStIL+sPOLS0VyiqT/YgPQOMuFVhmOQdjHZIhOSHbfHhWL9AwtYiOf83p90FmHT2p7MZn0AvYUJU5fr4lB9PPr3TOAMTYy1+fswp69LwmTucNXHT990GgzkMkcqrGhAWGcyBQa5JfsQYnB+YqYbzxlyK95ROQqrFgdj4yc7TA8ny7NDZ7y5WN9lvEpbfKn37zvKYoJr31XWH3Iwl97bD7LYvOZgu08NMDkG7EeObt2+28vQNnOdSxrmFz4/xNPDkqvSQQFSskXOKEtQwe+qTyCoxcc0L52CAcKvcapHiykTmCErgyDLYvFky2N5dDlCT10RhDEUkeuzkFJ8Q9h8HoT2DsLqfO0EmxZkGyfPSjCJoICeeWBQzIMHJJh4JAMQxeKsAmCIAhiCUAGmyAIgiCWAGSwCYIgCGIJQAabIAiCIJYAZLAJgiAIYgmwqAZb/JbtsVnTR/J8xcZzVSGUoJ4gCIIgQouQiLAdPH/xuS+n8tISBEEQBOFOUN7D5hEy/15z/c1B9kuBlHz+CckcRHRXo7rVDqWO/U5TetmvAKnRD2D56F/x3mW78CGAva+USN+oBaxmVr+6HsLuiId+J2+Xp4jjH7fnCQpGMPJgEO31FvQJ5by9XjQKdab7IXyF0u17x/yzujuF40hZM4kAoXc3A4dkGDgkw8AhGYYugUfY3BAaz+FLL6kNba01qDhTIUbOfvbzhrCcXsnqtol780T6xspKaXmdGWyTEcePHJUS648Iv48dKcdRKXWikHh/an872syNuGbuEZbmR3hEz8tM/pfqCYIgCCJUCDz5x9B1fHHqM9yUbcWvfv932F9SiGxtPPg34e1tNczg2qFKY5Fu/B0v+yVCnahFUvQIvhlbhYwf/Q7/8LMCxMvuoPbDE/ji9mq8+L//I/72r0tQlLsS3Rcvo60nAtrnN8Bh+RwXG0eR9Np/xoH//GPkrrqNuiuNGEn5Kf72v/5n/Dh9DKavG9A+EY+CwjiM3wPWaguwZ99eGNJX4faVW7gzsQZbCnkCdyJQZiZdIOYLyTBwSIaBQzIMXQKPsIU0iDooHTz922EcOWaE2ZlM15W57sdh0XjXTfZ3tRE1J97B4cOH8fZ7p3HJ1A5b/13YpGrrs3XI1PMlcjlUa2Oh3FwEXaZeWObmiegjxsPgGBxm8bcSiWsn0dv8J7zN23qXt9WHEaGMIAiCIEKfoBjsnJI3sa90J9JUNrTVVKBSWpZ2Y677TREpGF25lJYWUEFn2IXikgXkxBXyw1aiYo7L8QRBEAQRagTnKXHBGO/HobLf42cZwMCNenh94NvffsMjGBnmd6cZchXWxamQmluAvb95C2VlZdLfIeznifTna7Btraiv74FD/QoOsnYO/mInsuOlMoIgCIJYAgRusIXo9aiwbH348P+FD9qAqCw9dCqp3Imf/eSqdYgb64f5g3fEpXKbihn2QmyKvgnjkXKpDvs7Mvs73V5R6aDPigJaP8A7rJ0jH9UIjgLdoSEIgiCWCoE/dOawobOzE113H7IfMii0O/BisQF5LAwOC+PGWIN0XQY0ESM+95NFRGLVihWQPZ6ETJkAjUYLnU6LeIUMY/a7GBgTjgSsUCJBo4EmXgFZGGsjLhXJKRqohIg7DDJFHFKTU6DhG8SDQ5OuQ0Z6GjTrlkOOhxhih4/R5iA/z4DC7GQkalRsOxEo9KBK4JAMA4dkGDgkw9CF8mETQYHe3QwckmHgkAwDh2QYugTnHjZBEARBEIsKGWyCIAiCWAKQwSYIgiCIJQAZbIIgCIJYAoR1dHR8FxEx9XUSglgQIyPiN+NIlxYOyTBwSIaBQzIMXSjCJgiCIIglAL3WRQQFehUkcEiGgUMyDBySYehCETZBEARBLAHIYBMEQRDEEoAMNkEQBEEsAZaowXbAajbiXJW/9JzEkoQniak655LkxY626tlSsT6d2NuqUVFZgWpS8hBAnHMqK/3k8SeIRWbpGmwTM9hfilm3iNDDYTXDeOyIlGntKCqq25jpnQO2VtR8yQy2STTY3GhVnXs2J0lbaw0qzlSghpT8iSE4SSdnZgXk2798RvXQfSwfxtFn0HkOFWhJnFgEWFRsbkQDm/T4G522VjYJMsOzsEhRiTRDKV4rNSBNKW0iiCeOHAk5JXjttRLkzDsh/xLGYYW57iLqpLE8YjUx4/3h3B1wIqgEnl5TWCq6jOsdrWhruoazJ07hTI0ZVsdKKNXxUMj4kmYtGs7Xo7axDh9/fJVd6HCMD5jR3NyD8RgpPSZfCq1tQMsDGdQ8fabQbhVOnzyBj7+oQU0NV5AoxArpMHkZ9/IcGBl0oKnS85i8W0zRqk7j5ImP8UVNjeARRsWKx+IeY9Xpkzjx8ResXY96QleqYawz4U5YrJiqU+pLzZV2jESqhbSfhDvuKfkcGByJhCa7GK/v24u81bdRe/U67CszUZQVy66tC27XiV0Laxcsdychi02DIR3oMnfBPrkeKRmJUEws/JouBTzTGtrbmN6zk1SlGWDQRQg6eMXnmJHhjlBuQdO1FtSc8jImngE89XDm3MTnEXH+OSvMLe4yctg60Tk4AUW8FlqXsX/2bB0avulBq/mWyzz0dOImw4lB3ONjOW833mBj2ZC+CrfrrqJtUIHMoizE0lT4RAlChM0U2mTE8SNHcMzIlJ+5YSNs8vzs+EnJC7OhtaYCR/myKBss4uKeWMdtSdvLUii/f1fTJu7A2zRWVrotVfU2mnH5krdjihHeNXOPsK/gFfK6vG1uIIzn8OVUX7xgYxNhRSVrq5W1xBDqVKKSn9+ztyK2AFhUnJONzTlqNqnZca/XjvEHckRHek5xfDLk9wU/g5lfRH7dLE1otfRKxVaYBLmbmNwDvKZLntnGjFh+jI3D49I4DGxl42nAOTc5b8mMSDIqn1rWFeYNl3nF8zbEXOahpxq5Gjnbt2G7MJbZz4hIyOWBBHhEIARpSfwBhkfCoS4oxYHyMpSX/Qpb5Tyy5hMtLx/EsDwO+SUHWNkBlBrS2JTuB2GiroL5Thx2/q4cZWW8zdeRhdu45mY0xeVSr8dkipZb8iYO8bpv/ZaVPUa3hQ1a1naLpRkP5Dl442AZa/sQ9pfkwHWVS6nTIysKGGqyoJUNaof1BiwDMkTp8p+t5bBA4NFfxVEcPlyOP3zaAbluB0qkQT8FN7RsIrXJt+JXZfw682uR63Yt3Ajgmj47uIyJg69CLRuApeUZMS5ecZmbmI699dutiHh8D/bIAuw/xGX0ChKY/tRf4gbdgznPQ88KzAFqscA6IYNan/6Mjq/vl6Ddw16fnYut+eIkKVdvRLJaBpm9D/ekUbA+W4dM/SyG2gkbKF032d/VRtSceEd40OHt907jkqkdtv67sEkDxfcxlUhcO4ne5j/hbV73XV63DyODwxjhk75BB6XjMv5YfhhHjnl5kESpQ0G+mg3sblhae2C9YcGATAFdvh9jQvhAhcTUJCjYxNnR3u0+Kdq70d4xgXFFMjYKgmXGRp8JXfZ6sdyNAK/pM4LrmFCuiYdKHgPH8MgzbLBd5x45VGtjodxcBF2mXngmgkeLEeNhcHA9kvafYo7z0LOCsNpw9jIcSVtQMlvQRSwKIfzQmbj0Ip/6/rwKOsMuFPuLwJw4l7S9LZHyJR4Wpe0r3Yk0lQ1tNd5eGWKGoyAfCfJJdNefQ51lALJlidDrSEXnjDINhtIDYlTyy3xE36qVlral8vkiROyBXFOCWAgBzENPEYKxPlkBC/TY9aw9eBdCBM1g9zaacLleXCZyWLtwa1CG8KRUJHq1cXJERMpx32FDHw/BmSdrrr8MU6N071Kuwro4FVJzC7D3N28Jk774577U6fOYaEV9fQ8c6ldwkNU7+IudyI4X6wgIE/x+HCr7PX6WAQzcqJ/xephcvQn61eOw/uXf8O5lB5Yl6kH2eo7w69nQCPNsFlO5BvHKcYxbb6FLvIjueuCKLfBrurSZZcwQwWeO89DTjficybH3juPScCpK9r0589YW8cQIYoTN7x9X4Gj5YZQf/ghN2IAtPpVaDjUbBOpwO6rfKcfhco/3dIXJtxCbom/CeISVHxbf/zt8xPX9yGjm+w6htfoYjngeU62Dnt+Ebv0A77B6Rz4SH9QRHpWYurfK2/y/8EEbEJXFjLFKaHQa1odN+tUYtzXgpuM5JOp1tAQ0Z5wPQInXrvztP+E62DU1eEQlTMa5fGmNL2UflvTgkhUTEZHs6nqgCsI1XdLMMmaI4DOneegpRxpb73xQDcuNdlw6/Z5wS+rwUfqgz/dBkF7rqkafLB4p+kKsHb2LMYUWO17ejZcK+b3LMPafHCpNOnQZ0usoDLkqFuuWsx8Ph/BQloDNO7aj0PA80lOSoI1XQRWvEV6fGrPfxcCYWAcrlEjQaKDhr32FrYJm82akbliNiYEBPHY9JvOMY9ctZ0d9iKGHQIw2B/l5BhRmJyMxFrjT2Ymuu6wAMii0O/BisQF5MzwLGSLGemC61gckFePnPy1Colfng+C4vQoii2CG1IGxoQHh2skUGuSX7EGJwfM1EKYX6gSsUYSzfR9ijOuBwQCDIQ8ZG9RI5NdZpkC8Vgdddha0CYFe09DG87WusDA+TjRI12UIrxf6HzN8TLBzj0tFcoo0zsQGoHGWC60+3XjKEJ4yYbORTBGH1OQU8ZVNp4zSdcjQqBDhJnMFFLPNQ9Kmpwk3GToGYR+TIToh2V2HomKh4TJwTujEEyEI6TXtuPheOc60q1Dw6zK8ppU2PwXYLxxF+dELQOEBlB8opAjbD5SSL3BIhoFDMgwckmHoEsIPnX3f2NFqacIQopBFy+EEQRDE90wQDDa/t1aC4h/ufMruGUL4wlTpa6Uw0NNmBEEQxPdMEJbECYKW0YIByTBwSIaBQzIMXWhJnCAIgiCWAGSwCYIgCGIJQAabIJ5inMkrgvXObLDbWwqQDIlQYXEMNn/Zvurcs/NxAYIISexorZY+0xqUr74Fu72lAMmQCB2C8OEUL1jr8H7FeTSOxaEod+l8xo57vsaz59E5rpRychNzZcYHK4h5402GzjzfZxrvY6XSPRf7rDnA7ddg/LwRdkUBfrynAHFsIPpsj3/q1Eeu8Sk82ou2uR7fX35y/kW2J5NDel4y5IGF8SO8f+qM0H+eMMZTxiRDIpSgJXGCCEnET/2ePM6isUr+Z4TJJXMKn8ydeZlnZJmSsLda0D0pR0J+AdKU/tpzlkl5yW2tqK74UMxv77JE5taenBmnuouok44v5Cc/9qFbPvoGqez7y8s92zlX4ZyUO5ydAMyfzcx5TzIkQongRNhuniVTUGsXLHcnIYtNg0GIsPnnS6tw+uQJfPxFjYe3yMsu43pHK9qaruHsiVM44xYtiHWvNPdgPEbyVrlnXNuAlgcyFglPoKO6Fg3n61HbWIePP74qth3rwA1f3q4PTzhipBOdgxNQxGuhFXecpd+8XxY0XWtBzSnPfnPBPDuQVx447jJ0wNbZiXuIYbr0EI8eMV3PMSBX+NyqHddPf4RPr04gY99/wd/+ci92GQqRrXXVOzuuGT/HjW+jkLd7NzJVE77bY1HfR+/+BSbk4ddlf4dfv5QOx42v0dA9ioQthUhSeGlP4cC9kUho8nbjjX17YUhfhdt1V9E2qEBmUQrkj1hZdjFeZ2V5q2+j9up12FdmoigrdlFXruYsQ8c3OHu8Dn3yAvym/L/irw0ajJka0N6zDBuKnN+8JxkSoUUQImxuuIzM25Q8S6aUbZYmtFqmswg5H7KokW7ajLhEBw5e32TE8SNHRG+UNcHLPzt+UvI0xfJzX4rJHgSY91rz5TkYTby+Da01FTh6+KhL6kW2jXmn18w9rFzyXPnxhP09PGG2L/dkr7Eya2uN4MXWCAcSz+v4SY9+e/TrGOv3canf5AUTwUOJNEMp9u0vQU6CYD2mYQ5ni8WK3vZ23Kj2kYzB3gpL9yTGV+uxSbA+vtvjme5uDskQnaFHOt9XmYhUjQLR4/2460z67NkeT4yxfRu2S5mb5BFiGkoRdqycbGwWyuy412vH+AM5oiPdj7v4+JEhK1uzPhz3u6+g/lIDGm9Y0DPBDLA+fTpBDcmQCDECN9hs8jAzA2aTb8Wvysql1HMuWZlYuclYBfOdOOz8HS8vQ3nZ68jCbeZt8oiU7/QAwyPhUBeU4kA5L/8Vtsq5YZ1r/uRBDMvjkF9ygNU9gFKDjkXSauSWvIlD/Hhv/Za19xjdFmZo2aCpZsftmOpvOQ6UGjDjK238vIwXcGMwBSWHXPvdzfrt2i9xEAv9Pvgq1LIBWFroYTtiEbHfQx//k34yT5KNsWP4cCoHOHcm69E6OI7V+k0+MuZN4xgZhoOFbHJFhGA42P8JqTwfP+dg45Jr8mztsfIWC6yuBm8qg1o5/vBpB+S6HaGVllGYH4qRu74X1UfLUX7EiJvROhROZRgkGRKhR+AG296N9o4JjCuSsVHQMmbA9JnQZa8Xy5nh67rJ/q42oubEO0J6urffO41LpnbY+u/C6Xyuz87F1nxxsMjVG5GslkFm7wNP/TsX1mfrkKlPY0fnKJG4dhK9zX8Soo+33+XH68PI4DBGbGyim4iZ9oTdPFkXpPOSx2VCnya2KlenQ58RjZjJ6X659lu5Jp45CjFwDI+w4UcQiwQzDoOOMMTkvIK/OVSGsvK38NutERhsvSTeU+XOZn0rhsZXQ78pCBP8LO0JK2hnL8ORtAUlPF2qtF1EhcRUnrXvATrau1msGCqIUatsjQ5Z2VugXRuL8Ad9aLbcEJ1xkiERgjyhh87EpR55hPSTKaDOsAvFrpF4MBE800qXJXKCeIqIiISCDaapnOFyFdbGKhEpE6M5h/UGLAMyROnykTOHASYsxY4zmzLodDQdzCdw4LnHckRGyP22JxiakxWwQI9dr5VMlyvTYCg9IK5M/TIf0bdqUem2MvX94pBuk9UPp6DkAOvjodfZGVhQVWkUnhYnGRKhSOAGW7kG8cpxjFtvoWvKu78MU6N0D5tNJuviVEjNLcDe37wlKJ/4x5fOnctPQG+jCZfrxSVyfj/o1qAM4UmpSFSKS0v3HTb08bDWs31v2FpRX98Dh/oVHGTHOviLnciOl8pUrL/h9/HgugUtguZPP43pNg74PaikcDj6m2GR7g06rC2wWMcxpuT9EjYRxJNH0k3ZkDTm+GpQ5yAehMdhnQqw3rBgQKaALn9uDjFf0UqJGsdERztuc1UX2pvEuCIFG9W+2nMIz3gce+84Lg2nomTfm9PLtXyMNjTCHMrPctjvodcuwyPleqxhY1muWos41QqEOx5g2MHOjWRIhCCBPyUuk2H5RA9umC6jttaExksNaO60omcsEkmp2SjMT8OaVaOwd5lRX12LixfrhPcNa7iBXMnfd5bhjrkaV1s60G9zoPPS1/jys8voWpGEba/vQkGiChHLh/CN2YRLX15Ck7kZzS1taBmSIT49D4bcCHQLT3qrkGaQ7kWHhbHx0oSW6xdgaWqCudmC1pZHWJucjTzmJGjwLTqc/TVfRsOtR1CokxHtMKOWDRCepcuQqUbkqgG0X63D+c/ZcZvqcbamGXej0/DCqzuRlyj2u80eITwpKhyXRfY1/EE37hkvoffPgwE9WRo47jLkz3AY8dH7H+JMdR1MrT3o67eif3ACK2O1SFk9gJuNV3D+a6bDtZ/iYt8qpBXvw57sSTR9WoveySS8sKcIiVNK6Ke9hDSkKQbQY2H6X2vG1epqWO7HIePlPSjWDsH8iZf27Ndx+t//GW8fq8cQM0ThgzdRz8c1NzBsn3umKpz+qBIXr7JxYzyPWxMJeH7vqyhKX9z3iOcqw1WxyYgcaIXFXAMTmyPqzxpx/tYEEp7fi1fz5Gj9gmRIYzn0CMJrXXKo1AlYowjH2NBDjMkSsJkZToMhDxkb1EiMV0EVrxE+LjBmv4uBManaCiUSNBpoJIPdJ4tHir4Qa0fvYkyhxY6Xd+OlQn7fhnu/sVi3nKnowyE85O3v2I5Cw/NIT0mCNj4aMt4HTTp0GdJrWyyqj123nG19CNYlxGhzkJ9nQGF2MhI1aqhd+4sYaJ8vwLZCHVT8oRGVBum6DGhUCiji1UhYJR2XNStbmwHDbtYvpxccJoMiLhXJKdJxmaPAj60R+vVsfXiFBnnguMtQfCWps2sAz8VrodNphTG0QpkAjYb9Tk6AYoWkwxFroDe8ir0vFSLOVodPansxmfQC9hQlukzs/tpLRxYbOwq289DAAGtvPXJ27UaJIQsKq4/2HIOwj8kQnZDsrutRsdBoM5DJHNixoQFhvMsUGuSX7BHai13kQTFnGTJnf0tq5NQcwToJTX4J9pQYkOKoJxkyaCyHHiGQXtOOi++V40y7CgW/LsNrWmkzsaSglHyBE7gMHfim8giOXnBA+9ohHCgM9L5NsNtbfEiGgUNjOXR5Qg+dEQTxJJCrc1BS/EMYdMExDMFubylAMiRClRCIsPmDF/xD+HKocw2Q3qAilhjklQcOyTBwSIaBQzIMXUIgwmaGOqcExbvIWBMEQRCEL2hJnCAIgiCWAGEdHR3fRURMfdGEIBbEyAj/LjtAurRwSIaBQzIMHJJh6EIRNkEQBEEsAULgoTPiaYAeVAkckmHgkAwDh2QYulCETRAEQRBLADLYBEEQBLEEIINNEATxPSBk6aqsQHWQEnwEuz0i9FgSBpsU8RmCp0atOgfjVPY0nnChApUVPNGKsGFeOKxmGI8dEfKw87+jC2yHIIKLHa1OvQ5KDuBgt0eEIkFI/iEaVOPZ8+gc59m3gp/0wlr3Pv71TC2GVPkwCGmxQgtuFKquNKNnPAYaIQvIwlhsOS4mngkDBJmcPokTH38hZGfjRjIqVkqS4g9rHd6vOI/GsTgU5arhaDPi9CdG3JrQIitbO3t9N+y4XvM1zl/8BkMrVkBma8VVUzusSIBWGw9FiAnYU4ZLWR++L+aTuCIQ+frVb54as+o0Tp74GF/40n37NRg/b4RdUYAf7ylAHCtztnmm8T5WKtVCYhGBBbQXbfPdP/e+t7FREoVYzXQGsEDG8mxtE4FBS+JBQEiGf+5L1LSSayvAJ5i6i6hjUTJ/o3OEy+fYh6io5gN4viiRZijFa6UL+xKe8B3n/YdQznOwlx+EQWljETtF2UQA+NVvcUXo5PHPYLayUuYkVld8iGNGMde/E3urBd2TciTkFzC9dtZhEXIl/zPCNLXzAtqTz9I/cyMapDJbazUqzvhZvZzXWJ5n28S8CUqE7bB1onNwAop4LbQsALaaL+N6Ryvamq7h7IlTOCN4WuEYHzDj7MkT+PgLrmwroVTzKId/S9xzf9dypgZtYo5YIU+1EGHzOlU4LbTFytw8OW/t+Tu+cAaztFeFK80WNF1rQc0p1/7FYLCJ1zuOMxda0XP7NgbYIBK8Y9kd316xD485YsRVjsKOC+yXe/QoRBJ1JtwJi5VWAMS6NVfaMRLp4skHgJtXPjGIeyOR0OTtxhv79sKQvgq3666ibVCBzCKP9IBusmD9t3bBcncSstg0Vg/oMnfBPrkeKRmJUEx4l9vMqMEph2QkJcYizhk9sWNdrb6IjolE5BkKkcRzt4YQM6JDxwB6RpdBvmaDNK749e7BeIykR/z2QW0DWh7IpAjRn748G7jKcDa9jxnvmcd4c8GffmdM4Px//AUm5OHXZX+HX7+UDseNr9HQPYqELU6ds+Oa8XPc+DYKebt3I1M1IaTtvIcYNm4f4tEjdj1zDMhVs6OyyPmjd+fZnsLhZ/ylQP6IlWUX43VWlrf6NmqvXod9ZSaKsmKFcTKfsSzrcF2lkGGE7+unbSIwghJh21prBE9KjDCZ0puMOH7kqOSFjQi/jx0pn7p/OMIm188qK6X7lM79j4heI3PNhPLjJ31GZHwg8nvaNdLNGr6/cUZ7cz3+3No7xvp3XOrf7J6j6GleM/cI7QteKW/PxNvz8JjBIj6+LyuzesrRzM7jpEe/puQyj37Z2MReUcnqtYry5EbSWIlKDy89aMjVyNm+DdulvOHyiEjI5d6cQvEcKyudsmCysTSh1dIrFVthEvppYv30I1PhfM7hSzbBipJyhxtz4T52+TuotqtYxL40vlvvvnIjXu9zX9ZgaiGHRVs1X56T9Go2PX4GmUXv3eetecjPj347mMN5c0iG6Aw90rnBVSYiVaNA9Hg/7tqkVuytsHRPYny1Hpv4PtIq0r79JchJ4L+nWVB7fscfO1ZONjYLZXbc67Vj/IEc0ZHux51ilrEsyPDD45IOzrNtYt4s0pL4AwyPhENdUIoDZeV467dbEfH4HuyRBdh/qAzlB19BAhs89ZecBtll/3JWXvYrbJVzw8YnamGHaYRJvArmO3HY+btylJXx/V9HFm4zL9NpgOZx/Dm1xxEHldC/g69CLRuApcUGVU4JXv/ZXuT/oAiGNw7iEB900qDJLXkTh3h7b/2Wnc9jdFvY8djgqmbtdsi34lesb2Xs70CpATNuzQuTywXcGExBySHXfnWzfrnKxVu/3CcYpU6PrChgqMmCViZwh/UGLAMyROnyxb4uKszQtFhgnWBRgz4dbofj58icD9uULA5hf0mu+z6u+JIpa6fF0owH8hy8cbBMaidnuh0u84sXUH1vDQylf+1e9rQwZz1+dvCq99YJhKudhtKFBcvPXb9V3w3DwUJJuSJCMHDs/xDBDNbj5xxsTuKNcMerHq2D41it3zSrHjpGAm3Py/jjKzMVR3H4cDn+8GkH5LodKJEMsn9mtqXS7UTpX7+Jklyp/oLbJubCot3DXp+tQ6Y+jZkTOVRrY6HcXARdpl6IbLiHFjEeBsfgsHCvQ9w/F1vzxYlUrt6IZLUMMnsf7okWfRo2sLpusr+rjag58Y7w5O/b753GJVM7bP134XQ653z8Obc33T/lmnio5DFwDI8wFfaGEolrJ9Hb/Ce8zdt7l7fXhxF+PNs99E3ETHvM3OBOeaUu2LvR3jEBeVwm9FI4KFenQ58RjZjJabnMqV9KHQry1cxp6YaltQfWGxYMyBTQ5fsxjkFCiFrOXoYjaQtKDPx6uCCd47giGRudstBnQpe9Xix3w49MuSE36KB0XMYfyw/jyDEji9inJSBc75RCwaHiztFSiK7nzRz1+JmC6b1etNgueh/F9N6Lw7ZA+fnVb2+w45jrWzE0vhr6TUEwZLO0579/KiSmJkHBApyO9m4pePKNt7aUaQaU7tvvxSjPr21ibizRh87EZRn51LfpVdAZdqHYX3TmlyC3J3iZlajwsUT75GGGsCAfCfJJdNefQ51lALJlidAvckJ9YYCfrIAFeux6TVp5WCj+ZMqX7Vjkva90J9JUNrTVeLwGptJh57Zt2BmCbxgEl2CPi6WOEjqm9+qIx9N6r9Ah3xkNzmB+8vOm38KS8Tizo4NOp9mBkWEHnnssR2SEnNnX+a1uBdKez/GnTIOh9IC4ivDLfETfqpVuO4nF3pjzWF5A28TcCRmD3dtowuV6cemJ37e5NShDeFIqEj1tilyFdXEqpOYWYO9v3hIUQ/zzWAadK8Fqj0W1fCAJemlrRX19DxzqV3CQtXXwFzuRHS/sxeaANYgPv48H1y1oEbRYvDfLn6x002l+ryopHI7+Zlgky+OwtsBiHceY0otcZkGu3gT96nFY//JvePeyA8sS9Vg8e+0Q7k0fe+84Lg2nomTfm96XxZRMFspxjFtvoUu88CxauAxTo3QP2xV/MuUIRns/DpX9Hj/LAAZu1E/d6xWWFe/d87MishQQl0LvO2zo48srnrIK9rh4SlCmFSA/QY7B86dwqk3mW+/nJT/f+s1XB1OixjHR0Y7bfNjyVaTOSYwrUrBRjXmvbi2sPT/jj+tNQyPMPp+/8cT/WBaeD3He559328R8CdJ72DWYfoo7gl1gHt1ECE868qCGX1T+IFSEOkd8yptFS8ITmCrmjRk2wMH2v9rSgX6bA52XvsaXn11G14okbHt9FwoSFRh0bT9TjchVo7B3mVFfXYuLF+tYW6ycK8xK8UnFO/M5/q4tSJxne0J9/vAT9ya5t+7oQdP5Olysa0D/pAyrVGosf3ADLdcvwNLUBHOzBa0tj7A2ORt5bPBr8C06TJdRW2tCo/kyGm49gkKdjGiHGbVu5zmA9qt1OP/5JTQ11eNsTTPuRqfhhVd3Ii9xDv0Sro6ELALP3b+Gc8aPYFqegx///KcoSpzDjDFH3J4stV/H6X//Z7x9rB5DbDIJH7yJei5Tdm6Icj6xy5DJsHyiBzecsrjUgOZOK3rGIpGUmo3CdOBGtRk9YMb4xVxE3GvyLtPsMFjYeb1/6gy7dudR1+WASr8DxfnpwtPUQ9c/xbsfnkP7shTh3e7gnXVw8XxK3F1vYyFbPoRvzCZc+pLpg7kZzS1taBmSIT49D4b8NKzxq8fPxnvcM560l/S+9txfYJblYPeP90zpvdu8Neu84iI/f/q9Lgl61UP0WNhYrjXjanU1LPfjkPHyHhRrh2D+pBa9k0l4YU8Rpocfc9qrjfjo/Q9xproOptYe9PVb0T84gZUJaUhTDMyvPX/9Y/vcM1Xh9EeVuHiVzSnG87g1kYDn976KonTxafj5jGXVna+mx5ZehuazlX7bJgIjKAY7LIw7qBqk6zLEyThMBkVcKpJTnC/Xh0GmiENqcopULlSAJl2HDE0EbMzw9MnikaIvxNrRuxhTaLHj5d14qZDfA/FsXwFFvEZ4FWnMfhcDY7x9xgolEjQaaPjAmtfx4xA73/ac9VOSoGXlfNlqFf8wx+NJyJQJrN08bEmNZAr6EEMPgRhtDvLzDCjMTkaiRg21OgFrFOEYY4VjiIH2+QJsK9RBxR8ucTtPNRJWsQM+HGItsblnbQYMu5lcnB7uLP1yn6BliBjrgelaH5BUjJ//1HXCCBy3Qe4YhH1MhuiEZPd+cGPNZSpeFIYcKldZyBKw2cAmT0MeMjaokcjrskkiXquDLjsL2oTl3mUaC9zp7ETXXUFKUGh34MViA/KmQg5+/eOh1em8yCV08G+w2YSnisW65eycuD5wWe3YjkLD80gXrrcKqtn0WNr0NDPDYHO9j1yFFavjkZGzHYbnRSeOM+95RdrkX78zkLc5FQp2jKGBAYxFrEfOrt0oMWRBYa3DJ7W9mEx6AXuKEl0MmEN4rauzawDPxWuh02mFfqzgc4kmHVkZmvm1569/2gxkMud+bGhAOEeZQoP8kj1Ce87XLec+lmMRfrsWDd2T0OTvxjZdHKLZufhrmwiMEEivacfF98pxpl2Fgl+X4TWttJkIOvYLR1F+9AJQeADlBwpnf0BmHlBKvsDxlGHPuSM4cq4HCcWHcKg4QdhG+Cd09dCBbyqP4OgFB7SvHcKBwkBHX7Dbm2bOMrQ34NjJCrRhM/bvK306H+YMMZboQ2fE/LGj1dKEIUQhS68LqrEmgo+5uhr/+u5ljDyXOPWWALG0Eb66V/xDGIL08Eiw25s/cqhzfoTiXU/pmxchSAhE2Pyhhmq02djFz6ULv3jw+2TVaLUroVuED4dQhB04rjLkBru6pg0bd/JbBHN4XYgQID0MHJJh6BICBpt4GqBBHjgkw8AhGQYOyTB0oSVxgiAIglgCkMEmCIIgiCUAGWyCeIoRvlBVGbwUh8FujyCIuUMGmyCeWuxorZY+0xqUb+QGuz2CIOZDUD6cEipw7386N6sCE1Yzqq40o2c8xuVjHfPHs136BsBMZn6wgpgv3mTIP57C83yfabwv5llXSNrHv60+9XU3/knfmXnQeS5l4+eNsCsK8OM9BYhjQ8Bne/yzkr7ytzvxaC/a5pqD3F9+8jZm6p9MXm7Sw8AhGYYuT3WE7Z5PmCCWEvw1PJ43nUW0lfzPCJMzgwI31hUnp/Kg87zPNULeZ24Yp7G3WtA9KUdCfgHSlH7amzqWlJfc1sra/1DMT+/y8XW39uTMwNddRJ3ZKmTcE/KTH/tQ6gNrT/o+vtC9WfPHEwQxF4ITYfvyzuHLa+fvXl/G9Y5WtDVdw9kTp3DGM0rw5/H7KIsY6UTn4ITwSU/57VqcPnkcZy60ouf2bQywiUeIKGR3AmhXC624I+t/FWv/BD7+osYjghDLrjRb0HStBTWnvJzbUwh55YHjLkPxc5X3EMN05iEePZIJ34zPVTMN++Ys3j1VB3vKT/Df//EASotU6K+9gus9y6Atcn4G0o5rxs9x49so5O3ejUzVhM/2eOT80bt/gQl5+HXZ3+HXL6XDceNrNHSPImFLIZL494E921M4cG8kEpq83Xhj314Y0lfhdt1VtA0qkFmUAvkjVpZdjNdZWd7q26i9eh32lZkoyopd1BUq0sPAIRmGLkGIsD28c9gE7/qaiXvY7F+ejIJtFTxwntXFZGW/mVEzGXH8yBHRi2fVRqxmfHb8pJuH7r2ur+NZYW2tETx53xF1MNrlBpn1/ST7Ld3I4303TvVdPLdj7NycERBFGMT8USLNUIp9+0uQk+BtIVlMBRnBi3jWM9Uj9/zx9lZYuicxvlqPTcI31X23x7Pj3RySTedo55niNApEj/fjrjMRtGd7PDva9m3Y7sxSxdNAsv6IuOZ4t+Nerx3jD+SIjnQ/LkEQ8yNwg80GcjUzTB3yrfhVWTnK2N+BUil7FBvUuSVv4lBZGcrf+i22yh+j2+JctnuA4ZFwqAtKcaCclZf9ipVzoynlTvVV19/xpuCfzCvB6z/bi/wfFMHwxkEc4hOVNNEsvF0Gj8KNF3BjMAUlh/h+vO+vIwvdLAJxzfsqTpDCuR18FWrZACwt3DEgiMCQq3NRoFPAcfld/OHwYRw+/Ed8arLgW9kgz/LK4E5jPVoHx7Fav2nWNI5C+lEW9soVEdI9ZjGV5+PnHKw9rrGztcfKWyywTrCoXZ8ulgvL9kdZ38rxh087INft8J5ilSCIORO4wbbdQ99EzLR3PuVdZyNt7SR6m/+Et9mk8va7p3HJ1IeRwWHhvhZnfXYutuaLuWZ53tdktUyKEpRI9FXX5/HmMhkEoV2ej7ZjAvK4zKlvPMvV6dBnRCNmcjrCcT035Zp4qOQxSzwfMxEy8PSppXtQatDB058U4E5lfSuGxldDvykIRnKW9oRXvc5ehiNpC0pmfEZVhcRUnnXvATrauyVnnSCIhbB4D50JHnYlKmraMO9HvmwB1PVHIH0iiBBCmWZA6YEyYYWn7OAryNmYCll4PNYwC+6w3oBlQIYoXb64qjQLwnL2OKs36HQoHRgZduC5x3JERsj9ticY65MVsECPXa9Jq1gcwak4IK5A/TIf0bdqUem2AkUQxHwJ3GCr1iA+/D4eXLegRRiNduHeb0PVOVTX98ChfgUH2aA9+IudyI4XqzjpbTThcr34JCq/j3ZrUIbwpFQkohX1vur6Oh5PNC/u4Q6LavnkI5TZgtAuv7+XFA5HfzMs0j1ph7UFFus4xpSs75SlgXiiMD2troHZGgF1fgF0SgesNywYkCmgy8+ddTmcw1e3UqLGMdHRjttcpfkqUuckxhUp2KiGj/bYccxGHHvvOC4Np6Jk35vTS948Im9ohJme2SCIoBL4U+LySEThW3SYLqO21oRG82U03HoERUIyosNuo/36BViammButqC15RHWJmcjz7ABDnM1rrZ0oN/mQOelr/HlZ5fRtSIJ217fhYIN0RjsbkKLt7olOdB4O56aHc9hRi2bJFQs+uAJ/+HoQdP5Olysa0D/pAyrVGosf3AjsHYz1YhcNYD2q3U4//klNDXV42xNM+5Gp+GFV3ciL1GGOzz7mJ1NoDnSPXAW2dfwB9141JEbhCXKEISeLA0cdxlyQ2zER+9/iDPVdTC19qCv34r+wQmsZArUX2+U3mYwosp0F4rsl/GzvduQLLOi7pNa9E4m4YU9RUicUjY/7SWkIU0xgB4L0/NaM65WV8NyPw4ZL+9BsXYIZm/t2a/j9L//M94+Vo8hZszDB2+ivqYGNdxIs33umapw+qNKXLzKxofxPG5NJOD5va+iKH1x38UmPQwckmHoEoTXuuRQqROwRhGOsaGHGEMMtM8XYFvxdmQkLGelD8E2I0abg/w8Awqzk5GoiYCNGbU+WTxS9IVYO3oXYwotdry8Gy8VJkEhVyF2na+6aqi9Ha9QBxV/cEalQbouQ/hQiiwiEqtWrIDs8SRkygRo0vOwJTUywHYVwmtjCavYtPNwiLUEyNZmwLCb9d0ZYYTJoIhLRXKK9LpYWBhvAJqUJGif0g+v0CAPHHcZiq91dXYN4Ll4LXQ6rfCRkxVcj9VKZjB70NkzwPQ0AutzdmHP3peE5WhHZx0+qe3FZNIL2FOUKOqjgJ/2NOnIytCwcQcMDbA2I9YjZ9dulBiyoLD6aM8xCPuYDNHMMXfT6ahYaLQZyGSO6tjQAAbG2PhQaJBfskdoT3zlbPEgPQwckmHo8j2l17Tj4nvlONOuQsGvy/CaVtpMLFkoJV/gBC5DB76pPIKjFxzQvnYIBwoDvT8T7PYWH9LDwCEZhi6L99AZQRBPHLk6ByXFP4RBFxzjGuz2CIJYON9ThM0fWOEJBORQ5xogvR1FLGHIKw8ckmHgkAwDh2QYunxPEbb4YZPiXWSsCYIgCGIu0JI4QRAEQSwBwjo6Or6LiIiQfhLEwhgZEb9fR7q0cEiGgUMyDBySYehCETZBEARBLAG+p4fOiKcNelAlcEiGgUMyDBySYehCETZBEARBLAHIYBMEQRDEEoAMNkEQBEEsAUL6HjZP3VfdaodSZ4CBXtgOaYJ234unQDVZ4VClwSB8m50nrahGq10JnWH+7+07rGZUs/r1NweF3/H6nTAsoJ0nAd07DBySYeCQDEOXICT/WDysde/jX8/UYkiVL2bfWgS4U2A8ex6d40qoQzAxR7D6xw1X1ZVm9IzHCIlRgo23hAHCMU+fxImPv0BNDU+juhJKdTwU/k7CWof3K86jcSwORblqONqMOP2JEbcmtMjK1orJVOaMHddrvsb5i99giCeBsbXiqqkdViRAq52lH98DnjIMdd0MRUiGgeMpQ/dxXAOekC0qVkps5IH7vm1sBEYhVrO4GdqeJWhJ/BnBYTXBeO5L1LTapC2LCx+4xspKGM1WiG91LhQl0gyleK10YVGx8C3s/YdQXlaGsvKDMChtQsROqZoJYg7w3OZ1F1EnjeMRPo8c+xAV1dwYe2JHm7kRDdK+ttZqVJypQDUNtqARpAibfxu8CqdPnsDHX9S4eVYO7uHWmXAnLFaK7MR9a660YyRSjXjZHZirTku5fd29N3ubmF9XzG8dIdS70tyD8RjJu+PLp7UNaHkgE71nrlw+2hIUz0tZxEgnOgcnoIjXQuvSP2/nIpfKrjRb0HStBTWnTuGMj8hR8Oz9nbfrzn77PYCe0WWQr9nA+scC0FlkMDEjqv0OI982ofrPx3HmQit6bt/GgANYqeR9mPBzrrxbc4+Q3b1yFtme/gifXp1Axr7/gr/95V7sMhQi21tU63bu7BjWLljuTkIWmwZDOtBl7oJ9cj1SMhKhmPAtJ+99TUZSYizinJEVO9bV6ovomEhEHutPkkLoQcgwY5Vintde5ld3nw1IhoHjJsOJQdwbiYQmbzfe2LeXjclVuF13FW2DCmQWZUHW4bqCIcMI3ze7GK+zffNW30bt1euwr8xEUVYsrW4EgaBE2Nw4VVRWMOMqRm8jLtGVw8YGREUl88hameIz+ARtrESlkU+qokd2zdzDhonkvfF6/B4m39cNNpBMRpz7sgZTQaKtFTVfnpP299cWvw9agZPHP4PZKvh+4r6szNpaI3iBYuTJB6sRx096nMvxk5JHKfbh2JEjOM77z5ry6UX6PW9hDwn/MnCPjGeRgXCMc/iSTTLOYn/4vW7zbMsNVrfFYkVveztuVL+Htw8fxuGj3jxtUd6Vlc7rwmRhaUKrpVcqtsIkyMzkX1dm6asQ7R87gsPl76DarmIR+9L4hv28rj376fd6CluePUiGASJXI2f7NmyXcv3LIyIhl08HeDY+f354XJKfEmk52dgsPXtyr9eO8QdyREc+K67O4hO4wRYm1SqY78Rh5+/KUVZWhvKy15GF27jGjNPIBj2yooChJgta2XztsN6AxTqBcLUem9TsQjKFyC15E4d4vbd+i63yx+i2cOO4AHy1ZW9FNetLh3wrflXG+1iOA6UGzLgtLkz8F3BjMAUlh1zPpZudCzca0n7SMu2BclZ+8FWoZQOwtLgPaKXOy3kPyBCly0cOP29XgiUDwVA244E8B28cLGP9P4T9JduxbXsJXv/ZXuT/oAiGNw7i0P4S5Khsfq+b1e6trRx4dt0r9nvo43/STzbrsWMdw4cVHkvRXN7MEbJNXRd+jFzfx/AlJ6/n7dJXfv0vXkD1vTUwlP713M9jKTHLOHR3EgmvkAxngTk8LRZYJ2RQ69OFMaTS7UTpX7+JklzRoAsrFhVHcfhwOf7waQfkuh0okYw9EThBMdhdN9nf1UbUnHiHXajDePu907hkaoet/y6bjHXQi5YLltYeWG9YMCCLgi6fT5pKJK6dRG/zn4Qo7O13eb0+jAwOL+C+p5+2bMx4TMQgOkOPdGGmdvUEXbB3o71jAvK4TOilEEyuToc+Ixoxk324Jxmb9dm52Cr0n7W0Jh4qeQwcwyPuHrhSh4J8NSIed7uct4Kdt6dBCqIMuEEz6KB0XMYfyw/jyDEji1x9zDKzXTfMoy1PRoYx6AhDTM4r+JtD/N7xW/jt1ggMtl6CybUNSd7jimRsdF4XfSZ02evFcjf8yGmW8+YRQURKoeCscEdtKUTX82a26znHS/dMQzL0i7D6cPYyHElbUGJIYyOSjco0A0r37fdilFVITE2CAg/Q0d69sACMmEGQHjoTl0nkU9+KV0Fn2IViIVpSQleQD3UEi4bqz6HOMgCZQod87pEJ3lglKhay7OpJMNsKCsz4sPNOkE9On/eyROh1HtYimP1mhiuHRaD7SncijUXQbTUVqPSMat3wc92U823LhYhIKFij0dJPyFVYG6tEpMyB4ZEFznr+5DTbeat02LltG3Yu0psGoYO/cShtImaBZOgNwVifrIAFeux6rWTmKqETZRoMpQfE1Ylf5iP6Vq10S0sqJwIicIPNJuN1cSqk5hZg72/eEi6U+De9LKlMK0B+ghyD50/hVJsMyxL1EOyWrRX19T1wqF/BQVbn4C92IjtebHYmcmYH5LjvsKGPh7rMGzbXX4apUbrf6a8t1RrEh9/Hg+sWtAiaI94P5U8zuumRMhGpSeFw9DfDIs32DmsLLNZxjClTkTjPyEyu3gT96nFY//JvePeyY/q8XQmmDDiC8dqPQ2W/x88ygIEb9dP364ZHWPDrEM95DtfNb1v+kOQoG7qFLi5vHkl3DuJBeBzWCU/6SCjZdVGOY9wq7eftfJzMJic/fXWwiN9x797MVZAlxSzXfi7X85mHZDh/xOdMjr13HJeGU1Gy7023aNr1bRDhWZKGRpjn5NUTCyHwp8RlEYhcNQp7lxn11bW4eLEO/F29Gn4BV0rvPrJ9nrt/DbXn/gKzLAe7f7wHRYnskoeFsbm8CS3XL8DS1ARzswWtLY+wNjkbeQYdWKiE6afEYyFbPoRvzCZc+vISmszNaG5pQ8uQDPHpeTDkJsLhqy022DT4Fh2my6itNaHRfBkNtx5BoU5GtMOMWucxMtXsXAbQfrUO5z9nx2iqx9maZtyNTsMLr+5EXqIMd8w8couAOke6B84ivxr+IBT3LJ33cZxI533O+BFMy3Pw45//VDxvV2aRQQQbEPxhrQh1zuwy0IzgEjvW+6fOsGtwHnVdDqj0O1Ccn87ihB40na/DxboG9E/KsCpWi5T1k76v24p+1Ppqy8vE5fZkKdeJZd/iZuMVnP+aybv2U1zsW4W04n3YU5A4/aS4TIblEz244bwulxrQ3GlFz1gkklKzUZgO3Kg2s54zY/xiLiLu+ZBTdhgsfvo6dP1TvPvhObQvSxHe7fbS/ZDA8wlnPhnO+drnp2HNbONQaPXphmQYOG4ytF/H6X//Z7x9rB5DMgXCB2+insuEyRRRsVDd+Wp6bOllaD5bidMfVeLiVTZ3Gs/j1kQCnt/7KorS6V3sYBCE17pkUMRrhNeUxux3MTAmbV6hRIJGA42g5DLm2a7CitXxyMjZDsPz0qTPPNrYdcvZhXyIoYdAjDYH+XkGFGYnI1GjQkQY30WDdF2G8GqUXBWLdctZxYdDeChLwOYd21FoeB7pKUnQJidB7bMtNdTqBKxRhGOMFY4hBtrnC7CtUAcVG4HTx1Cwc1EjYZV0DNZF2doMGHbvxktOrzKMnW9cKpJTpNdCmMHl56HhfZgxoNl5j/XAdK0PSCrGz39aBE97PZsMmHvrMuEwpfcng5hx9HR2ouuu0HMotDvwYrEBeSw0kEVEYhX/eMjjSciUCdBotNDptL6vm5+2vOE+UbL918RCsUKSd8Qa6A2vYu9Lnq9SyaFyvS78fAzMcTLkIWODGomCs6dAvFYHXXYWtAk+5BQL3PHb1zDIFPHQ6nRerlHo4N/YzHLt41VQzToOn35IhoHjJkPHIOxjMkQnJLuPHWasNZpYhN+uRUP3JDT5u7FNF4doFpGPDQ0IspMpNMgv2YMSQxZinwXBPQEoveYiY79wFOVHLwCFB1B+oFB4UGM+9Jw7giPnepBQfAiHihOkraEHfc4wcDxluFSufShBMgycOY9lewOOnaxAGzZj/77Sp/NhzhAjSA+dEd6xo9XShCFEIUuvm5+x5veDjMfwr+9exshziVNPrRPPBubqarr2AUIyXGzkUOf8CMW7ntI3L0IQMtiLDL83XvpaKQwznjabGzzxya7iEuTSU0PPHHTtA4dkuIjw53YKCykx0xOElsSJoEBL4oFDMgwckmHgkAxDF4qwCYIgCGIJQAabIAiCIJYAZLAJ4inGmcyCv9oUDILd3lKAZEiECkEy2NLXcI4cxuEjx4Ke2YYUnCAWgh2t1dJnWgP+7i0n2O0tBUiGROgQnHzYwtdwPkDFJStkGi20Gg0UQyZUTeVJDeyDA9a69/GvZ2oxpMoXPn5AhB6eH6wg5o83GfIPf/A832ca70s5zKWRxL+tPvV1N55Jykuucvs1GD9vhF1RgB/vKUCc3E97/DVCXznZnXi0F21zzUHuLz85zzz3ZHJKe/twiq8+ziz3IkeSIRFCBCfCtt3GTdtyqAy/xe8PecvcQhDE/LBLOdxZNFbJ/4zTmc6ERCgnp3Ky89zrNULudfeUrPZWC7on5UjIL0Ca0k97U8eS8pLbWln7H+KYR0pJt/bkzDjVXUSd2SpklRPykx/7UOrD9Lf6he75yhm/2HAD6rOPokF0fgebl3vjmZchEVIEHGELXmAlmzy+akDPnT7cGZqALCoWsbiDzsEJKOJZxC18YbMKV5otaLrWgppTp3DG05v1453a3b4pziNsvgRfhdMnT+DjL1iZh/c5q9dMBB3yygPHXYYO2Do7cQ8xTG8f4tEjmfD9ev4+seObs3j3VB3sKT/Bf//HAygtUqG/9gqu9yyDtsj5GUg7rhk/x41vo5C3ezcyVRM+2+NR30fv/gUm5OHXZX+HX7+UDseNr9HQPYqELc7PyXq0p3Dg3kgkNHm78ca+vTCkr8LtuqtoG1QgsygF8kesLLsYr7OyvNW3UXv1OuwrM1GUFbuon/d0k+HEoJ8+rofN+BE+vTqBjH3/BX/7y73YZShEttZ1niAZEqHFoj10ZmutETzCGiFlEjOwJn6P+8hUVODuMYre5DWeRIP9EjxN7vmavN8Ld97TrpFuAo24eMpCxhjjOXwZjHSVBPG9oUSaoRT79pcgJ8HbepWYBjKCF/GsZ6pHkNmnc7azUA6W7kmMr9Zjk/DREN/tOaxduDkkm84Xz7OtaRSIHu/HXWcSaM/2eHa07duwXVpNk0eI/RFxzTdvx71eO8YfyBEd6X7cRcdfH9k80WKxore9HTeq3xNyrB8+6hHBkgyJECNggy1X56Ck5BUYin6A/L2/we8PlPr58o2o8AfKy1B+8FWoZQOwtEhGmSlvbsmbOFTGyt76LbbKH6Pb4r7EJ8AGmslYBfOdOOz8XbmQ/q687HVk4TbzXpkzYOcDsRkP5Dl44yClFySePuTqXBToFHBcfhd/4Ibm8B/xqcmCb2WDPIMqgzvI9WgdHMdq/aZZdV9IP8pCNrkiQjAc7P+ENJSPn3PmL5+tPVbeYoF1gkWc+nSxXFi2P8r6Vo4/fNoBuW7H93yrzKOPjnvos7M/qZR5/WxeOYYPp/KokwyJ0OOJvta1PjsXW/OlHNlr4qGSx0g5ipVIXDuJ3uY/CZ7u2++exiVTH0YGh2feW2IGu+sm+7vaiJoT7zBlZvu/x/dvh63/LouqmeE36KB0XMYfyw/jyDEjzK43kQhiqcM/CVm6B6VMz70+gslXmepbMTS+GvpNQZjgZ2lPWPE6exmOpC0oMaSx0eyKCompSVDgATrau2c64E+IGX1kBnbQEYaYnFfwN4eYY1/+Fn67NQKDrZfE+9IkQyIEeaIG2yeCJ1mJijkvY4tLR/II6SdTaJ1hF4pLcqFWqpHDIvV9pTuRprKhraZCfIWCtJx4ilDyb9Qf4CtI7O/gK8jZmApZeDzWMAvusN6AZUCGKF0+cmYLDRnCUuw4qzfInWeOAyPDDjz3WI7ICLnf9gRDc7ICFuix67WS6XLBqTggroD9Mh/Rt2pRaTS5PYD1pPDaR3bOCjaBREv78DS3a2OViJSJETHJkAhFQsNg21pRX98Dh/oVHGTKefAXO5EdL5V5wgbWujgVUnMLsPc3b4kTlvDnsvTN7w2V7Mehst/jZxnAwI16CLfSCeKpgz+dXAOzNQLq/ALolA5Yb1gwIFNAl88c2NltDRsuG5ESNY6Jjnbc5o6tvRvtnZMYV6Rgoxo+2mPH4d9eeO84Lg2nomTfm9PLtTyabGiE+Xv3kv30kd9jTgqHbOgWurgFFM55EA/C47COPyRLMiRCkCC9h92GGv7AGPcIc0WFc3+yO4IpJo9y2aSSY4DwoLdbnUQ4upvQcv0CLE1NMDdb0NryCGuTs5Fn0IGFydNtZaoRuWoU9i4z6qtrcfFinfD+Yg1/4GylEuoV/aidej/1POq6HFDpd6A4P939fUgiqNCTpYHjLkNuiI346P0Pcaa6DqbWHvT1W9E/OIGVTI/7643SGxVGVJnuQpH9Mn62dxuSZVbUfVKL3skkvLCnCIlTOu+nvYQ0pCkG0GMxo7bWjKvV1bDcj0PGy3tQrB2C2Vt7wrcX/hlvH6vHEDNE4YM3Uc/HITcwbJ97piqc/qgSF6/W46zxPG5NJOD5va+iKH1x3yN2k6G/PiqTkLnuIW42XsH5r01orP0UF/tWIa14H/ZkT6LpU5IhjeXQIzgGOyyMKZgKmpQkaKWPpIibNEjXZUDDLWWYDIq4VCSnSB8ScK2TnAT1uuVMCR9i6CEQo81Bfp4BhdnJSNSoEOHWlgKKeI3wsYIx+10MjAk9AFYokaDRQBMzjp7OTnTdZQ2xnii0O/BisQF5c3GTiQVDgzxw3GUovtbV2TWA5+K10Om0gs6vUCZAo1ayyb4HnT0DGEME1ufswp69LwlLqY7OOnxS24vJpBewpyjRZWL3054mHVkZGijYzkMDrM2I9cjZtRslhiworD7acwzCPiZDdELy1JgXiIqFRpuBTOaUjw0NCONTptAgv2SP0J74ytni4SZDf33UaJGtY+e8Ipz18yE75zXQG17F3pcKEWcjGXJoLIcelF6TCAqUki9wApehA99UHsHRCw5oXzuEA4WB5ikOdnuLD8kwcGgshy6hcQ+bIIigILxmWfxDGHTBMQzBbm8pQDIkQhWKsImgQF554JAMA4dkGDgkw9CFImyCIAiCWAKQwSYIgiCIJUDYJ//rk+8iIqe+QEIQC2JE/CYmSJcWDskwcEiGgUMyDF3IYBNBgQZ54HAZTkwCy1eSDBfKo1FRD0mGC4fLMHwZjeVQhB46I4ICPagSOFyGo48ARQzJcKEM3hf1kGS4cLgMVy6nsRyK0D1sgiAIglgCkMEmCIIgiCUAGWyCIObNwDfVqDRW4Pw3wUlOEez2COJpJEgGW8o6c+QwDh85BiNPxCGVBAMh/VxlBar5R/GfJnha0apzc5bXUysHV2bIhCdcoBSpoYUd7ecr8NnparQPSJsCItjtEcTTSZCydfGsMx+g4pIVMo0WWo0GiiETqs6eR+e4EmrXD9svAGvd+/jXM7UYUuXDoFMJhssYpLY9Wcy2Z2Ctw/sV59E4FociKcuZPzzlEEp4JgxwWM2oOn0SJz7+AjU1bWxKjkKsZg5Zhjxk4mgz4vQnRtya0CIrW/tUZ1zjMuRPia9YOft45BFp1Vfn0c30dH2cAuHS9rkw2mNGtfEkTp3+Aue/rhGM5Kp1GihH23D+7Ec48dEZYfv0XxsG2PVbt1G6fgPXcLaqEQNRBXilpADr2EZnm58138fy1WrEKaSR47Ciofo0Kj78GF+6Hsv1Onq0p7D76J/LccQyj34xxkZFPZyLDAnvcBnyp8S9j+UawXGOipWSOHmwkHEvzLkfvY/PWhxYqVQLCVXc4QFhFU6fPIGPv6gRszOKnRATSz1DBCfCtt3GTdtyqAy/xe8P7Z/O6Uo8o7Co2NyIBhYl85dsbK3VqDiz0JUBJdIMpXit1IA0+hRz4HADeukiLl2zYpT9HO1ljvWHH6JSMH4zGWiXlqrbpxPKD3xjgXVSjvi8AqSuZtHx1xX46MMKGD/lf0Y09jrXi8TIueLkZ2joZZow0Ira0x/i1BdmTO3CcGtvpb/+sfYaGtEklU31jZbRFw+el7vuIuqksTxiNcF47ENUVHNj7MkCxr2wonYGR9/7v3Gy0ggTz00+A2awTUacq6pG67QaPpMEHGELHlXlSRz/qgE9d/pwZ2gCMub5xOIOOgcnoIhnETdPCM88pCvNFjbYWlBz6hTO1JhhdayEUh0PwaHiilF1Wsrx6+7FuefWVsFh65xuO8LmVq/Gtd0J3236Ol7EiEvb4o4e3p2r1yiW+T0vV9yOyfazdsFydxKyWGcecX/HmimHUMIzNeTgSCQ02cV4fd9e5K2+jdqr12FfmYmirFj3VQt/MkkHusxdsE+uR0pGot/r6e7Z+7kGIYxrhC1E0PUmfMtG0gZJD3sbqnDe1I6RCDWix3tw++EEO38tkl3KjX8+gcoqL1Gxk4lB2Ni12ZCzGz/92V4U6Vah+8JVtD9UYNOLO/F8Vh6KXjCIf8+nQna3Cza5Bttf3YPnYwUtRNMXn+MbWxS27NqNdOUE7Lc7YQ+LQdSyhxgbkyFhiwGbE9i+LHI+/R9/QSPysP8f/w77i9Mx2vY1mqyjiM8uxMYo3iGP9qIcvvu3LQUrx1lZVjH2srLNMbeZYb+OAaZX2zJihVUG9wiby+QybnS24mbLNXz14Sl8JsglHOP3WaQuyIo5D6MrsXp9PKKkecj7igB3TGrRdLEel5rrUHn6qnf5PgW4RdhMX+7xsZy3G2+wsWxIX4XbdVfRNqhAZlEWZB2uK5IyjPgZ90MzVi/ZfFf7If5y7Q6Gn4vGGkU0knIMyFXLPVY6ZbhjrkafLAM/+l0ZDjDn3ZCX/sxF15xFe+jM1lojeFc1gkskekjHjhzBcSObTJn75e59iZ7ZNXMP21Py4iorYTR5v7fr3vY0Qr3TlfhMuP/pr03xvujJ45/BzDsDm7gvK7N69ttsxPGT7HebeKwRZhiMx09KHuZs5+WK2FZlpfOYrA+WJrRaesVihvMetduxeJ+n7ucuFVhUnJONzcJKix33eu0YfyBHdKTnAJtFJmzyNBkrWRRlYgbYz/XkRt94Dl8yB8ddI5YwA204z3S58nyrGPlyQ/IFO9+z3MAwSbXXuEW+0w9tib9He5kD82klqhrEaHQKuRqbt21DwWY1VrKfK+WRkEd4d9h5BHu+3Y7VqTtRlCotb7Aoudk6iYloPdLW8+upROoLpSj96xJkC7+nGe3pQueQDIpNbF9uwFcnImmDAlET/bhnlzTasz2//WPH2pyNLKHMDns/06tBOaIiPPXKiQM914w49S9HpQh9hBlw/rsc70v3y93l5IzgRR0TonteJkT0NmEl4T/+ydnWMwK7Hjnbt2G7tGrKr4WcXRMnwlz84XFpXvU/7t335SrN5reGbiAxB6/kJMJVCz335fQ2VuODdw7j8OEjOMbnW2fBM0TABltIHVfyCgxFP0D+3t/g9wdKYfC5dikubx4oL0P5wVehlg3A0iJdEKYYuSVv4lAZK3vrt9gqf4xui7dlFw+4QpXsZ/UO4hc7i/BCgQE7DTlgTprvNu2tqGYXvEO+Fb8qK0cZ++Ne24ygVTAEF3BjMAUlh/h+rJ2y15GFblwTjIi0n7/zcsLbYkbeNnXMQ9hfkiv2Uyo3GatgvhOHnb9zPdZtdqwlqJx8qaviKBtc5fjDpx2Q63bMvFUym0w88XU9WTstlmY8kOfgjYNlUjuSDixRVmv1YMEMHl63SIblBq73TkC23mkoXWDn33C2Cg1341D023L8w38rwz/84+tIZ7pj+cKMHp+6wyLQVgt6xmVYn5kOblOnYcbrSj36HFHQPp8L8ZBs/2v1+GZoHNGZmzz2n4nDMYxRFvbKoyKk6y6HnE3ej8McGHbwTs3Wnpf+CY7MUfwf/1SO//F5B1Zqd2CXZNy984D1Ixzrny/Ff/pv5fj//s1WyB/fw/2IAvz8vzI5/e4VrGfyu3pFmmuYjm1++U38f7gMD/0WOUzHrM3OeWgQDnkccl8+wGR8AK+9kIbVwvZnBeZgt1hgnZBBrU8XxpdKt5M5a2+ixPkMjp9x77YvH/tsbm19kIwtu2be7nJvVw51bgmK2X58juaBzGdTQdOzxRN9rWt9di625osTqXJNPFTyGDiGR5gaKJG4dhK9zX/C24cP4+13T+OSqQ8jg8PCvZC5ICyhXOMKsl1SED9t2u6hbyIG0RlsUhRmdVfP0AV7N9o7JiCPy4Re0ii5Oh36jGjETPaxKEHY5Oe8XJDaGlckY6PzmPpM6LLXi+VMgbtusr+rjag58Q5TeNbn93if22HrvwvbUjPYU6iQmJoEBZs4O9q73QfYbDJxw8/15IbcoIPScRl/LD+MI8eMLGJfsgITWa1DZkYUs9hNaP6mBz3McD2QceOZM9OwjVrR3cH+zI04/6d3mDE7jP/z/dO42tAO+927sLuF2NMIUfm5yxjduAUvFbkbn9EeE662DUG+Ph/Pa6XZlDsGV1oxNL4aGTp/RnKOzNKev/5xvUpIFvXq9q1uvxFvXJYO6Zm8PpsV1sZCqS9CChv7qaxBHsGvnAiDg+kRn4fUaybRf+NP+D+dMrzWJ5V5tvXsIawAnr0MR9IWlBjSmLTYqEwzoHSft+eWZo776X1VsJmNuND6AMlbdnkN8NzbZQY7pwT7D3FnnAcyv2LOegcz+NVofcYs9hM12D4RvLJKVCx0SVOoX4cmbMAWZ4QWaJvfC+Jyk3zqE74q6Ay7UOwv6gxVlGkwlB4QB9gv8xF9q1Za2pbK54u/6ymssryJfaU7kaayoa3maXgNTInU5/MRzyO8K+dwqXkA4VE65G3xZSgl3ZkqVCGlaBd+8HIuErxUEIzhRxW4Dj1efKVEvOc8BX9YjN+/ZX0oMgiGjSNE+Q9kiNLmY7NnlO8F3p+VE8wuDzmdVwdzZB147js5IuVyv+357N/qNBTt5REui4DfyEdURy2MZ01+VhHmgfM2xLO05D1HBGN9sgIWdj12vVaCHF8T0pzGvR1tl+px+dLXOF/9Ad45/Ae8d7oeV6/W4/SfPpr1FqBctQ6xykjIHMyRCsZ1X0KEhsG2taK+vgcO9Ss4yC70wV/sRHa8VDYr7OJXV6CuCcja7rIc769N1RrEh9/Hg+sWtAiaJN4f5U83ul1/ZSJSk8Lh6G+GRZr9HdYWWKzjGFOmInGmY+gbJTumchzj1lvo4sfkS0L1l2FqlO7XylVYF6dCam4B9v7mLUHhxb8luLzLz62hEebZLOZsMnFlNh0RjDa/NfJ7/CyDzb036pf8E6WrUwuQFy/HUN0p/K92GZ5Ti1HhDFaqsGadCkmbC1DyN2+Jxkz4O4Sfv5QjLWc7cYj3cf94HFeHU/HST9+csaTMo+vzX7fC4eYgOMQoP1zhskTun5UJG6GJGsdEVzt6uAUc6EbH7UlMRKUgMQE+2vPTPx6RW9g4Xaynwu2tuHKV6dj6V3CAye9//9lOZMRJZc8s4nMmx947jkvsepTse9MtmhbuQzufs5ll3E/va4OKRczOJW5vuLbb02ZGY8P0bUF7WyOa74wgPGmec/BTwHxe31w8VDros2rwTSP3tkyInrQKk+1Gqdgv/H50dTWqG8eQpmT1LUC8ficMej9tKnUwMCN483g9/ni4F7Xq5ZiUpaLA8EMkCo1KCEZgCy4fNeLP5eWwMO0aGRyEI3qTUJ8b0TnbBGHZNg1m5zGVKzDBFHwiIhLRUnlOSSGsldUwHilHrUIKsxUpyDcYYGCDZOkgPoxXzQzsaeaEjFhvogdqdh4eKwWzycQVfzrCo2+mAzWWPvZjBNZ+rgN6n5PBkoHJJy1zNaq+akDnc1vwSqbO+1Is22/zy4Xo/bQaZ/+lHBejpnXnef60t6tBlu4B/99/aoJyM3MK/vIemv7CtsfrUcSi6SIthOi6sScC6/fx17bEatxYtvEof5kWmc4lcgH+9HQ1M/CXYGqoB/e17r3/BwzdMmBHUTaKXs7B3dOX8cE/9eFL9KN3NB6Ze1nUvtKKi97a89e/5xMw1MCOdbkHxlgVi9BvopfpVd4LubPeT58TbF7ITK/BreYPcPSfTIh6bMVNZnvc5oRnDWFl6yje+aCJGVkmotPvwXKabWfXYyebl7Lt/OHPS0DBWhRsUvkd9w7hQVG+769R/ptSbDaUisdgOnTxPQfCeNHPXmcOgRL2i59PtavN6ET1ZzWwjMZBzVTb1s+cg9hclCzx51QWQnA+nBIWxiYNFTQpSdBKHxsRN2mQrssQH78Pk0ERl4rkFOm1Ktc6yUlQr1vOvLaHGHoIxGhzkJ9nQGF2MhI1KkR4tOXWNruAQ6zmChY1r5HmKf6qjyYjDxkbfbWphlqdgDWKcIyxwjHEMC+/ANsKdVCxzk8fSwFFvBoJq1iHHw6xlgDZ2gwYdu/GS04v0995uX14RQ6V6zFlCUxhmSE2sH5uUCMxXgVVvEb4aMCY/S4GxqRqK5RI0LDz4W15yjSEcHutSxaBSGa0x4YGhPOQKTTIL9mDEkMWYt1es5pNJuycZQrEa3XQZWdBm+DjesYCdzo70XVXuEJQaHfgxWID8pbYaJ754RQZIiJWMRWIh27zdhTlpE99cISpgqALutQMbGB6GhWnET5W8mjAXXfWb9Rgg+uHVUYHWbkMUfHJSHbdHhWLDRvYvszJGWQNRG7cgm1FedBI78WN3q7Dpxd7Mal5AT8qTBR1X8AhvNZ1+/YAwuK0SNVqERslY4dOYO2lI0OnAR8+w/YBjMnXY3MxGztFWVD0+mjPX/+SM5DObPujh6JehUdpkLd7j9DeOkmvPD+cEsbGZ1RsKjYmiR9eCWP/hSvikLwxRXxdThqvG3RMx3Rp2LCW6ViYpGOpOcjLMWBrVjISNq5hfZRDuTEdqZs8PvzylOH2WpdjEHZ2PaITkt3nM/7REk0swm/XoqF7Epr83dimi2OOtq9xzyP1qul9k13nRgafR+O17Bpo2Rw44bbvi/o1mBgdw8AAH99AxPoc7Nqzd3oOfoag9JpEUKD0moETuuk1Hbj56RG8X+9A8iuH8J/yA12HDHZ701B6zcCZc3pNewOOnaxAGzZj/75S/x82Wqx9nzFC4x42QRAhjTyBRTU7f4git+XwhRPs9ojvA/709o+Ee9GzG9XF2vfZgiJsIihQhB04oRthLx0owg6cOUfYxBOHImyCIAiCWAKQwSYIgiCIJQAZbIIgCIJYApDBJgiC8MN0YpXgfLAl2O0Rzw5ksAmCIHzCP9Nagc+k7F6BE+z2iGeJ4Hw4ZYkg5Ey+0oye8ZhnMpfqYuKeD5tYCDM/nELMF88Pp4z2mFFtPIlTp7/wmiPcWf5Z830sX60WPj7jxsA1nK1qxEBUAV4pKcA6VtFnHYfVRy5tsVjAoz2F3bV/7nVm6/ti4fbhFCKkeKYibOHTeOe+nJFHmyCIpxEWzQr5rcWc4Dy/9/RSNP+kagU++rACxk/5nxGNvW6ZBAQGvrHAOilHfB7/TKu/OmLkXHHyMzT0jrCKrag9/SFOfWGGa7Nu7a1kBv7SRVyS+ifk3/7wQyn5iL++E88qQYiw+SfnLuN6Ryvampj3eOIUztTwD7WvhFIdD4WMJ+eoRcP5etQ21uHjj68yVYxCrCYCNnMVTp88gY+/qEFNDc9tyrer4OCpMutMuBMWK0XC4mftaq60YyRSPfXpOm91Be+TebrmqtM4eeJjfFFTgza7Aw962lH7yXGcudCKntu3McAG0UrlHNoi5gRF2IFDEXbguEfYDgyORGJDVjH2/mwvNsfcZsbxOgZWZmJbhgKDtzthD4tB1LKHGBuTIWGLYUbWsqYvPsc3tihs2bUb6coJ4TOsXuuwyPn0f/wFjcjD/n/8O+wvTsdo29doso4iPrsQG6O8tBflgI33L2c3fsr6V6Rbhe4LV9H+UIFN21KwctxX32MXNQkERdihSxAibDHRw/EjR3DMyAw1cy7dE4zb0FpTgaOHj7qkRuQGmNU5WYGaNnELr2OU6thsUirF6lZWn+/ODLCxknmYYsYWIdVbpUddZ8YYVoNn7zp5/DOYeWfYEb1m4hLw3w/yZQliKaNE6uZsZAnJT+yw99sxPihHVAQ3yqzshVKU/nUJsn2lHmNRcrN1EhPReqQJ+/iuM9rThc4hGRSb2L7cgK9ORNIGBaIm+nGPBQwCnu3xpC3btqFASs7Cc3PLI5xG0l/fiWeVIC2JP8DwSDjUBaU4UF4mJRjnhtOZB3UQw/I45JccYGUHUFoQgS7jBdwYTEHJoXIxd2rZ68hCN64ZTXBs0COLeaRDTRYhQbnDegOWARmidPnIUdlgMlbBfCcOO3/nWvc2q8sMek8rqtm/HfKt+FUZLy/HgVKeyq0ErzNPNf8HRTC8cRCH9pcIbZn99MOZzo0giCWKlP3r//incvyPzzuwUrtjRjpR7zjQe60e3wyNIzpz06zZwByOYYyysFceFSGtzMkhj5TjcZgDw0LS5tnaY+WtFvSMy7A+M10sX3DfiaeVoN3DXp+di635YrozuXojktUyyOx9zLt0luuQqU9jfiPD3o32jgnI4zKhlz4WK1enQ58RjZhJVgc6FOSrEfG4G5bWHlhvWDAgU0CXnws1rOi6yf6uNqLmxDs4fPgw3n7vNC6Z2mHrvwub9R76JmIQnaFHupCtSYm0nGxs9pbZZbZ+UIhNEE8JKiQkJ0HBgovbt7ox6wPa/AGyK60YGl+NDF0QjOQs7Qmvep27jNGNW/BSUZpHGtV59p14agnRh86YkS3IZ17mJLrrz6HOMgDZskTodc4vwUdCLiwfST+ZQusMu1Bc4pFvmSCIZ5vVaSjaewD/8N/K8A9v5COqoxbGsyb0zLJ6Ntp7A9cfyBClzcdmX0vmLvD5aOUEs8tDI9KtNwccww48950ckXK53/YEY/1RBa5DjxdfKZm+j77AvhNPL0Ez2L2NJlyuF+8xO6xduDUoQ3hSKhK9ZVtRJiI1KRyO/mZY2sQw1mFtgcU6jjGlWEeu3gT96nFY//JvePeyA8sS9RDstVyFdXEqpOYWYO9v3hKWscW/Q9jPE5qr1yA+/D4eXLegRVjTtrvfwx4ewQgbSML/z6EfBEEsUXhUa2Fjf95PVjvQ02rBg3AFtM/nYg72GisTNkITNY6Jrnb08BB4oBsdtycxEZWCxAT4aM+B3gYjTv3xOK4Op+Kln745veS94L4TTzNBekq8GldbOtBvc6Dz0tf48rPL6FqRhG2v70JB4gRuCU9qq5BmMECnYlVkEYhcNYD2q3U4//klNDXV42xNM+5Gp+GFV3ciL1EBGdvnufvXcM74EUzLc/Djn/8URYlM04W6o7B3mVFfXYuLF+tQw9qv4QZ5pRLq5HgWn3+LDtNl1Naa0Gi+jIZbj6BQJyNpzRBunK/DxboG9E/KsCpWi5T1D/33QzxJYhboKfHAoafEA8ftKfGJOzB/VQnj/6rEZXM9qs+eR+dEAnJefRWFujD0fG3E6eMf4nM2JzS29+BOvxV3hiawXD6Ozv/3EvofJ2F7SZHL/Wb+WpePOvFpSFUMoK/ZjIsXzDB/XY3mB3HY9MM9eCF5CA1/qZ3Z3sB1GP9//4z/cbIeD2UKhA/exJWva3C+nRlpZrVtDVU++r64b7DQU+KhS9AMdp8sHin6QqwdvYsxhRY7Xt6Nlwr5fZcw9p8cKk06dBkaiN8rkUERr0bCKvbj4RAe8i1rM2DYzepM3WuWIWKsB6ZrfUBSMX7+0yJwey3W1SBeIcOY/S4GxoSd2QhVIkGjgSY+FnHqBKxRhGNs6CHGEMO82gJsK9QhVhGJVStWQPZ4EjJlAjQaLXQ6zSz9IOYCGezAIYMdOG4Gmzv33znw6OGAME+ER2mQt3sPXirKwjqZQ3hF6/btAYTFaZGq1SI2SsamkQSs+64XV69/i0nNC/hRYaLLPOC7zoYN6chgcwmfSobtAxiTr8fmYjaPsGMpeuvw6cXeme2NDrJ+yRAVn4zkOGawpc2IisWG5AykK+Gj79J+iwQZ7NAlCPmw7bj4XjnOtKtQ8OsyvKaVNgcB+4WjKD96ASg8gPIDheIDa0RIQvmwA4fyYQdO4PmwHbj56RG8X+9A8iuH8J/yA511gt3e4kP5sEOXEH3ojGNHq6UJQ4hCll5HxpogiCeCPCEHu3b+EEXa4Mw6wW6PeHYJQoQtLom32eRQ5xogvR0VBPh73NVotSuhMwSzXWIxoAg7cCjCDpzAI2yCIuzQJQgGmyDIYAcDMtiBQwY7cMhghy4hvCROEARBEISTsE/+1yffRUROfYGEIBbEyDD/bjtAurRwuAz5U+LLV5IMF8qjUVEPSYYLh8uQPyVOYzn0IINNBAUy2IFDMgwckmHgkAxDF7qHTQQFuocdOCTDwCEZBg7JMHShe9gEQRAEsQQgg00QBEEQSwAy2ARBEASxBCCDTRAEQRBLADLYBEEQBLEEIINNEARBEEsAMtgEQRAEsQQgg00QBEEQSwAy2ARBEAQR8gD/fw0yTv1dyeH2AAAAAElFTkSuQmCC;" vertex="1" parent="1">
          <mxGeometry x="-21" y="90" width="492" height="291" as="geometry" />
        </mxCell>
        <mxCell id="FxnMpLFhFHQ9vmVd9Fjh-14" value="" style="edgeStyle=orthogonalEdgeStyle;rounded=0;orthogonalLoop=1;jettySize=auto;html=1;" edge="1" parent="1" source="FxnMpLFhFHQ9vmVd9Fjh-2" target="FxnMpLFhFHQ9vmVd9Fjh-3">
          <mxGeometry relative="1" as="geometry" />
        </mxCell>
        <mxCell id="FxnMpLFhFHQ9vmVd9Fjh-2" value="INICIO" style="ellipse;whiteSpace=wrap;html=1;aspect=fixed;" vertex="1" parent="1">
          <mxGeometry x="50" y="420" width="80" height="80" as="geometry" />
        </mxCell>
        <mxCell id="FxnMpLFhFHQ9vmVd9Fjh-15" style="edgeStyle=orthogonalEdgeStyle;rounded=0;orthogonalLoop=1;jettySize=auto;html=1;entryX=0;entryY=0.5;entryDx=0;entryDy=0;" edge="1" parent="1" source="FxnMpLFhFHQ9vmVd9Fjh-3" target="FxnMpLFhFHQ9vmVd9Fjh-8">
          <mxGeometry relative="1" as="geometry" />
        </mxCell>
        <mxCell id="FxnMpLFhFHQ9vmVd9Fjh-3" value="5d&lt;br&gt;Planificacion y diseÃ±o" style="ellipse;whiteSpace=wrap;html=1;aspect=fixed;" vertex="1" parent="1">
          <mxGeometry x="220" y="420" width="80" height="80" as="geometry" />
        </mxCell>
        <mxCell id="FxnMpLFhFHQ9vmVd9Fjh-35" value="" style="edgeStyle=orthogonalEdgeStyle;rounded=0;orthogonalLoop=1;jettySize=auto;html=1;" edge="1" parent="1" source="FxnMpLFhFHQ9vmVd9Fjh-4" target="FxnMpLFhFHQ9vmVd9Fjh-9">
          <mxGeometry relative="1" as="geometry" />
        </mxCell>
        <mxCell id="FxnMpLFhFHQ9vmVd9Fjh-4" value="3d&lt;br&gt;FinalizaciÃ³n del proyecto" style="ellipse;whiteSpace=wrap;html=1;aspect=fixed;" vertex="1" parent="1">
          <mxGeometry x="1040" y="440" width="80" height="80" as="geometry" />
        </mxCell>
        <mxCell id="FxnMpLFhFHQ9vmVd9Fjh-25" style="edgeStyle=orthogonalEdgeStyle;rounded=0;orthogonalLoop=1;jettySize=auto;html=1;entryX=0;entryY=1;entryDx=0;entryDy=0;" edge="1" parent="1" source="FxnMpLFhFHQ9vmVd9Fjh-5" target="FxnMpLFhFHQ9vmVd9Fjh-4">
          <mxGeometry relative="1" as="geometry" />
        </mxCell>
        <mxCell id="FxnMpLFhFHQ9vmVd9Fjh-5" value="6d?&lt;br&gt;Ev y ajustes finales" style="ellipse;whiteSpace=wrap;html=1;aspect=fixed;" vertex="1" parent="1">
          <mxGeometry x="840" y="505" width="80" height="80" as="geometry" />
        </mxCell>
        <mxCell id="FxnMpLFhFHQ9vmVd9Fjh-24" style="edgeStyle=orthogonalEdgeStyle;rounded=0;orthogonalLoop=1;jettySize=auto;html=1;entryX=0.5;entryY=0;entryDx=0;entryDy=0;" edge="1" parent="1" source="FxnMpLFhFHQ9vmVd9Fjh-6" target="FxnMpLFhFHQ9vmVd9Fjh-4">
          <mxGeometry relative="1" as="geometry" />
        </mxCell>
        <mxCell id="FxnMpLFhFHQ9vmVd9Fjh-6" value="2d?&lt;br&gt;ImplementaciÃ³n y capacitaciÃ³n" style="ellipse;whiteSpace=wrap;html=1;aspect=fixed;" vertex="1" parent="1">
          <mxGeometry x="840" y="310" width="80" height="80" as="geometry" />
        </mxCell>
        <mxCell id="FxnMpLFhFHQ9vmVd9Fjh-20" style="edgeStyle=orthogonalEdgeStyle;rounded=0;orthogonalLoop=1;jettySize=auto;html=1;entryX=0;entryY=0.5;entryDx=0;entryDy=0;" edge="1" parent="1" source="FxnMpLFhFHQ9vmVd9Fjh-7" target="FxnMpLFhFHQ9vmVd9Fjh-6">
          <mxGeometry relative="1" as="geometry" />
        </mxCell>
        <mxCell id="FxnMpLFhFHQ9vmVd9Fjh-21" style="edgeStyle=orthogonalEdgeStyle;rounded=0;orthogonalLoop=1;jettySize=auto;html=1;entryX=0;entryY=0.5;entryDx=0;entryDy=0;" edge="1" parent="1" source="FxnMpLFhFHQ9vmVd9Fjh-7" target="FxnMpLFhFHQ9vmVd9Fjh-5">
          <mxGeometry relative="1" as="geometry">
            <Array as="points">
              <mxPoint x="750" y="545" />
            </Array>
          </mxGeometry>
        </mxCell>
        <mxCell id="FxnMpLFhFHQ9vmVd9Fjh-26" style="edgeStyle=orthogonalEdgeStyle;rounded=0;orthogonalLoop=1;jettySize=auto;html=1;entryX=0;entryY=0.5;entryDx=0;entryDy=0;" edge="1" parent="1" source="FxnMpLFhFHQ9vmVd9Fjh-7" target="FxnMpLFhFHQ9vmVd9Fjh-4">
          <mxGeometry relative="1" as="geometry">
            <Array as="points">
              <mxPoint x="760" y="480" />
            </Array>
          </mxGeometry>
        </mxCell>
        <mxCell id="FxnMpLFhFHQ9vmVd9Fjh-7" value="3d&lt;br&gt;Pruebas y depuraciÃ³n" style="ellipse;whiteSpace=wrap;html=1;aspect=fixed;" vertex="1" parent="1">
          <mxGeometry x="710" y="310" width="80" height="80" as="geometry" />
        </mxCell>
        <mxCell id="FxnMpLFhFHQ9vmVd9Fjh-16" style="edgeStyle=orthogonalEdgeStyle;rounded=0;orthogonalLoop=1;jettySize=auto;html=1;entryX=0;entryY=0.5;entryDx=0;entryDy=0;" edge="1" parent="1" source="FxnMpLFhFHQ9vmVd9Fjh-8" target="FxnMpLFhFHQ9vmVd9Fjh-7">
          <mxGeometry relative="1" as="geometry">
            <Array as="points">
              <mxPoint x="500" y="350" />
            </Array>
          </mxGeometry>
        </mxCell>
        <mxCell id="FxnMpLFhFHQ9vmVd9Fjh-19" style="edgeStyle=orthogonalEdgeStyle;rounded=0;orthogonalLoop=1;jettySize=auto;html=1;entryX=0.5;entryY=0;entryDx=0;entryDy=0;" edge="1" parent="1" source="FxnMpLFhFHQ9vmVd9Fjh-8" target="FxnMpLFhFHQ9vmVd9Fjh-6">
          <mxGeometry relative="1" as="geometry">
            <Array as="points">
              <mxPoint x="480" y="290" />
              <mxPoint x="880" y="290" />
            </Array>
          </mxGeometry>
        </mxCell>
        <mxCell id="FxnMpLFhFHQ9vmVd9Fjh-22" style="edgeStyle=orthogonalEdgeStyle;rounded=0;orthogonalLoop=1;jettySize=auto;html=1;exitX=1;exitY=1;exitDx=0;exitDy=0;entryX=0.5;entryY=1;entryDx=0;entryDy=0;" edge="1" parent="1" source="FxnMpLFhFHQ9vmVd9Fjh-8" target="FxnMpLFhFHQ9vmVd9Fjh-5">
          <mxGeometry relative="1" as="geometry">
            <Array as="points">
              <mxPoint x="508" y="605" />
              <mxPoint x="880" y="605" />
            </Array>
          </mxGeometry>
        </mxCell>
        <mxCell id="FxnMpLFhFHQ9vmVd9Fjh-23" style="edgeStyle=orthogonalEdgeStyle;rounded=0;orthogonalLoop=1;jettySize=auto;html=1;entryX=0.5;entryY=1;entryDx=0;entryDy=0;" edge="1" parent="1" source="FxnMpLFhFHQ9vmVd9Fjh-8" target="FxnMpLFhFHQ9vmVd9Fjh-4">
          <mxGeometry relative="1" as="geometry">
            <Array as="points">
              <mxPoint x="480" y="700" />
              <mxPoint x="1080" y="700" />
            </Array>
          </mxGeometry>
        </mxCell>
        <mxCell id="FxnMpLFhFHQ9vmVd9Fjh-8" value="15d&lt;br&gt;Desarrollo del sistema" style="ellipse;whiteSpace=wrap;html=1;aspect=fixed;" vertex="1" parent="1">
          <mxGeometry x="440" y="420" width="80" height="80" as="geometry" />
        </mxCell>
        <mxCell id="FxnMpLFhFHQ9vmVd9Fjh-9" value="FIN" style="ellipse;whiteSpace=wrap;html=1;aspect=fixed;" vertex="1" parent="1">
          <mxGeometry x="1230" y="440" width="80" height="80" as="geometry" />
        </mxCell>
        <mxCell id="FxnMpLFhFHQ9vmVd9Fjh-10" value="0&amp;nbsp; &amp;nbsp; &amp;nbsp; &amp;nbsp; &amp;nbsp; 0&lt;br&gt;0&amp;nbsp; &amp;nbsp; &amp;nbsp; &amp;nbsp; &amp;nbsp; 0" style="rounded=0;whiteSpace=wrap;html=1;" vertex="1" parent="1">
          <mxGeometry x="10" y="510" width="120" height="60" as="geometry" />
        </mxCell>
        <mxCell id="FxnMpLFhFHQ9vmVd9Fjh-11" value="H=0&amp;nbsp;" style="text;html=1;align=center;verticalAlign=middle;resizable=0;points=[];autosize=1;strokeColor=none;fillColor=none;" vertex="1" parent="1">
          <mxGeometry x="10" y="570" width="50" height="30" as="geometry" />
        </mxCell>
        <mxCell id="FxnMpLFhFHQ9vmVd9Fjh-12" value="0&amp;nbsp; &amp;nbsp; &amp;nbsp; &amp;nbsp; &amp;nbsp; 5&lt;br&gt;0&amp;nbsp; &amp;nbsp; &amp;nbsp; &amp;nbsp; &amp;nbsp; 5" style="rounded=0;whiteSpace=wrap;html=1;" vertex="1" parent="1">
          <mxGeometry x="200" y="520" width="120" height="60" as="geometry" />
        </mxCell>
        <mxCell id="FxnMpLFhFHQ9vmVd9Fjh-13" value="H=0&amp;nbsp;" style="text;html=1;align=center;verticalAlign=middle;resizable=0;points=[];autosize=1;strokeColor=none;fillColor=none;" vertex="1" parent="1">
          <mxGeometry x="200" y="580" width="50" height="30" as="geometry" />
        </mxCell>
        <mxCell id="FxnMpLFhFHQ9vmVd9Fjh-17" value="5&amp;nbsp; &amp;nbsp; &amp;nbsp; &amp;nbsp; &amp;nbsp; 20&lt;br&gt;0&amp;nbsp; &amp;nbsp; &amp;nbsp; &amp;nbsp; &amp;nbsp; 20?" style="rounded=0;whiteSpace=wrap;html=1;" vertex="1" parent="1">
          <mxGeometry x="351" y="520" width="120" height="60" as="geometry" />
        </mxCell>
        <mxCell id="FxnMpLFhFHQ9vmVd9Fjh-18" value="H=0&amp;nbsp;" style="text;html=1;align=center;verticalAlign=middle;resizable=0;points=[];autosize=1;strokeColor=none;fillColor=none;" vertex="1" parent="1">
          <mxGeometry x="351" y="580" width="50" height="30" as="geometry" />
        </mxCell>
        <mxCell id="FxnMpLFhFHQ9vmVd9Fjh-27" value="20&amp;nbsp; &amp;nbsp; &amp;nbsp; &amp;nbsp; &amp;nbsp; 23&lt;br&gt;21?&amp;nbsp; &amp;nbsp; &amp;nbsp; &amp;nbsp; &amp;nbsp; 24?" style="rounded=0;whiteSpace=wrap;html=1;" vertex="1" parent="1">
          <mxGeometry x="600" y="390" width="120" height="60" as="geometry" />
        </mxCell>
        <mxCell id="FxnMpLFhFHQ9vmVd9Fjh-28" value="H=1" style="text;html=1;align=center;verticalAlign=middle;resizable=0;points=[];autosize=1;strokeColor=none;fillColor=none;" vertex="1" parent="1">
          <mxGeometry x="600" y="450" width="50" height="30" as="geometry" />
        </mxCell>
        <mxCell id="FxnMpLFhFHQ9vmVd9Fjh-29" value="23&amp;nbsp; &amp;nbsp; &amp;nbsp; &amp;nbsp; &amp;nbsp; 25?&lt;br&gt;24?&amp;nbsp; &amp;nbsp; &amp;nbsp; &amp;nbsp; &amp;nbsp; 26?" style="rounded=0;whiteSpace=wrap;html=1;" vertex="1" parent="1">
          <mxGeometry x="920" y="240" width="120" height="60" as="geometry" />
        </mxCell>
        <mxCell id="FxnMpLFhFHQ9vmVd9Fjh-30" value="H=1" style="text;html=1;align=center;verticalAlign=middle;resizable=0;points=[];autosize=1;strokeColor=none;fillColor=none;" vertex="1" parent="1">
          <mxGeometry x="920" y="300" width="50" height="30" as="geometry" />
        </mxCell>
        <mxCell id="FxnMpLFhFHQ9vmVd9Fjh-31" value="20&amp;nbsp; &amp;nbsp; &amp;nbsp; &amp;nbsp; &amp;nbsp; 26?&lt;br&gt;20?&amp;nbsp; &amp;nbsp; &amp;nbsp; &amp;nbsp; &amp;nbsp; 26?" style="rounded=0;whiteSpace=wrap;html=1;" vertex="1" parent="1">
          <mxGeometry x="890" y="600" width="120" height="60" as="geometry" />
        </mxCell>
        <mxCell id="FxnMpLFhFHQ9vmVd9Fjh-32" value="H=0&amp;nbsp;" style="text;html=1;align=center;verticalAlign=middle;resizable=0;points=[];autosize=1;strokeColor=none;fillColor=none;" vertex="1" parent="1">
          <mxGeometry x="890" y="660" width="50" height="30" as="geometry" />
        </mxCell>
        <mxCell id="FxnMpLFhFHQ9vmVd9Fjh-33" value="26?&amp;nbsp; &amp;nbsp; &amp;nbsp; &amp;nbsp; &amp;nbsp; 29?&lt;br&gt;26?&amp;nbsp; &amp;nbsp; &amp;nbsp; &amp;nbsp; &amp;nbsp; 29?" style="rounded=0;whiteSpace=wrap;html=1;" vertex="1" parent="1">
          <mxGeometry x="1100" y="530" width="120" height="60" as="geometry" />
        </mxCell>
        <mxCell id="FxnMpLFhFHQ9vmVd9Fjh-34" value="H=0&amp;nbsp;" style="text;html=1;align=center;verticalAlign=middle;resizable=0;points=[];autosize=1;strokeColor=none;fillColor=none;" vertex="1" parent="1">
          <mxGeometry x="1100" y="590" width="50" height="30" as="geometry" />
        </mxCell>
        <mxCell id="FxnMpLFhFHQ9vmVd9Fjh-36" value="29?&amp;nbsp; &amp;nbsp; &amp;nbsp; &amp;nbsp; &amp;nbsp; 29?&lt;br&gt;29?&amp;nbsp; &amp;nbsp; &amp;nbsp; &amp;nbsp; &amp;nbsp; 29?" style="rounded=0;whiteSpace=wrap;html=1;" vertex="1" parent="1">
          <mxGeometry x="1300" y="530" width="120" height="60" as="geometry" />
        </mxCell>
        <mxCell id="FxnMpLFhFHQ9vmVd9Fjh-37" value="H=0&amp;nbsp;" style="text;html=1;align=center;verticalAlign=middle;resizable=0;points=[];autosize=1;strokeColor=none;fillColor=none;" vertex="1" parent="1">
          <mxGeometry x="1300" y="590" width="50" height="30" as="geometry" />
        </mxCell>
      </root>
    </mxGraphModel>
  </diagram>
</mxfile>
